<svg xmlns="http://www.w3.org/2000/svg" width="2400" height="1000" viewBox="0 0 2400 1000">
  <defs>
    <linearGradient id="kraftg" x1="0" y1="0" x2="0" y2="1">
      <stop offset="0" stop-color="#E2C79C"/><stop offset="0.55" stop-color="#D9BC8F"/><stop offset="1" stop-color="#C9A876"/>
    </linearGradient>
  </defs>

  <g>
    <rect width="2400" height="1000" fill="url(#kraftg)"/>
    <circle cx="1253" cy="807" r="2.5" fill="#7A4A21" opacity="0.06"/><circle cx="1839" cy="704" r="2.0" fill="#7A4A21" opacity="0.05"/><circle cx="65" cy="384" r="2.1" fill="#7A4A21" opacity="0.06"/><circle cx="1204" cy="317" r="2.3" fill="#7A4A21" opacity="0.11"/><circle cx="964" cy="998" r="0.9" fill="#7A4A21" opacity="0.10"/><circle cx="2101" cy="151" r="2.1" fill="#7A4A21" opacity="0.08"/><circle cx="2292" cy="210" r="1.8" fill="#7A4A21" opacity="0.10"/><circle cx="1533" cy="309" r="0.9" fill="#7A4A21" opacity="0.11"/><circle cx="1138" cy="996" r="1.1" fill="#7A4A21" opacity="0.10"/><circle cx="1952" cy="920" r="0.8" fill="#7A4A21" opacity="0.07"/><circle cx="124" cy="752" r="1.4" fill="#7A4A21" opacity="0.11"/><circle cx="900" cy="774" r="2.4" fill="#7A4A21" opacity="0.06"/><circle cx="1336" cy="957" r="1.7" fill="#7A4A21" opacity="0.07"/><circle cx="641" cy="786" r="1.1" fill="#7A4A21" opacity="0.08"/><circle cx="1333" cy="553" r="1.0" fill="#7A4A21" opacity="0.09"/><circle cx="2200" cy="319" r="1.4" fill="#7A4A21" opacity="0.10"/><circle cx="1388" cy="273" r="0.8" fill="#7A4A21" opacity="0.09"/><circle cx="835" cy="467" r="1.3" fill="#7A4A21" opacity="0.08"/><circle cx="1750" cy="310" r="0.9" fill="#7A4A21" opacity="0.11"/><circle cx="2184" cy="21" r="1.8" fill="#7A4A21" opacity="0.09"/><circle cx="967" cy="732" r="2.5" fill="#7A4A21" opacity="0.08"/><circle cx="940" cy="196" r="1.3" fill="#7A4A21" opacity="0.05"/><circle cx="265" cy="212" r="2.3" fill="#7A4A21" opacity="0.08"/><circle cx="1932" cy="920" r="2.3" fill="#7A4A21" opacity="0.04"/><circle cx="2222" cy="93" r="2.2" fill="#7A4A21" opacity="0.10"/><circle cx="1578" cy="404" r="0.9" fill="#7A4A21" opacity="0.05"/><circle cx="1528" cy="242" r="1.8" fill="#7A4A21" opacity="0.06"/><circle cx="392" cy="295" r="2.1" fill="#7A4A21" opacity="0.07"/><circle cx="943" cy="486" r="1.8" fill="#7A4A21" opacity="0.08"/><circle cx="1068" cy="967" r="2.2" fill="#7A4A21" opacity="0.06"/><circle cx="764" cy="189" r="1.5" fill="#7A4A21" opacity="0.04"/><circle cx="1787" cy="568" r="1.6" fill="#7A4A21" opacity="0.10"/><circle cx="789" cy="579" r="2.5" fill="#7A4A21" opacity="0.08"/><circle cx="1471" cy="368" r="2.6" fill="#7A4A21" opacity="0.09"/><circle cx="728" cy="356" r="1.9" fill="#7A4A21" opacity="0.08"/><circle cx="1256" cy="192" r="1.8" fill="#7A4A21" opacity="0.09"/><circle cx="1836" cy="449" r="1.6" fill="#7A4A21" opacity="0.08"/><circle cx="1287" cy="475" r="0.8" fill="#7A4A21" opacity="0.06"/><circle cx="2371" cy="826" r="1.6" fill="#7A4A21" opacity="0.09"/><circle cx="507" cy="267" r="1.7" fill="#7A4A21" opacity="0.09"/><circle cx="66" cy="472" r="2.4" fill="#7A4A21" opacity="0.08"/><circle cx="2383" cy="99" r="2.4" fill="#7A4A21" opacity="0.10"/><circle cx="63" cy="537" r="2.2" fill="#7A4A21" opacity="0.06"/><circle cx="1558" cy="851" r="2.2" fill="#7A4A21" opacity="0.07"/><circle cx="140" cy="539" r="1.1" fill="#7A4A21" opacity="0.08"/><circle cx="647" cy="347" r="1.8" fill="#7A4A21" opacity="0.10"/><circle cx="2341" cy="406" r="0.8" fill="#7A4A21" opacity="0.09"/><circle cx="814" cy="758" r="2.3" fill="#7A4A21" opacity="0.04"/><circle cx="1754" cy="285" r="1.4" fill="#7A4A21" opacity="0.06"/><circle cx="1292" cy="243" r="1.7" fill="#7A4A21" opacity="0.06"/><circle cx="299" cy="250" r="2.0" fill="#7A4A21" opacity="0.06"/><circle cx="481" cy="366" r="1.2" fill="#7A4A21" opacity="0.11"/><circle cx="1889" cy="152" r="1.3" fill="#7A4A21" opacity="0.07"/><circle cx="1267" cy="388" r="1.7" fill="#7A4A21" opacity="0.09"/><circle cx="370" cy="559" r="1.1" fill="#7A4A21" opacity="0.08"/><circle cx="761" cy="803" r="2.4" fill="#7A4A21" opacity="0.11"/><circle cx="977" cy="617" r="1.1" fill="#7A4A21" opacity="0.09"/><circle cx="1867" cy="427" r="1.4" fill="#7A4A21" opacity="0.09"/><circle cx="1801" cy="799" r="1.3" fill="#7A4A21" opacity="0.06"/><circle cx="602" cy="191" r="0.8" fill="#7A4A21" opacity="0.05"/><circle cx="1183" cy="431" r="2.4" fill="#7A4A21" opacity="0.07"/><circle cx="409" cy="931" r="0.9" fill="#7A4A21" opacity="0.06"/><circle cx="1833" cy="321" r="2.5" fill="#7A4A21" opacity="0.09"/><circle cx="740" cy="863" r="2.5" fill="#7A4A21" opacity="0.08"/><circle cx="345" cy="104" r="2.3" fill="#7A4A21" opacity="0.10"/><circle cx="1569" cy="774" r="2.2" fill="#7A4A21" opacity="0.06"/><circle cx="512" cy="868" r="2.3" fill="#7A4A21" opacity="0.07"/><circle cx="649" cy="79" r="1.5" fill="#7A4A21" opacity="0.10"/><circle cx="488" cy="316" r="0.9" fill="#7A4A21" opacity="0.08"/><circle cx="144" cy="675" r="1.7" fill="#7A4A21" opacity="0.07"/><circle cx="622" cy="303" r="2.4" fill="#7A4A21" opacity="0.11"/><circle cx="1805" cy="213" r="1.2" fill="#7A4A21" opacity="0.07"/><circle cx="2102" cy="943" r="1.2" fill="#7A4A21" opacity="0.08"/><circle cx="911" cy="456" r="1.2" fill="#7A4A21" opacity="0.09"/><circle cx="1877" cy="939" r="1.7" fill="#7A4A21" opacity="0.07"/><circle cx="1551" cy="131" r="2.4" fill="#7A4A21" opacity="0.09"/><circle cx="547" cy="402" r="1.7" fill="#7A4A21" opacity="0.10"/><circle cx="1663" cy="239" r="2.5" fill="#7A4A21" opacity="0.11"/><circle cx="2059" cy="493" r="1.7" fill="#7A4A21" opacity="0.07"/><circle cx="2347" cy="481" r="2.5" fill="#7A4A21" opacity="0.05"/><circle cx="73" cy="472" r="1.2" fill="#7A4A21" opacity="0.06"/><circle cx="86" cy="124" r="1.6" fill="#7A4A21" opacity="0.05"/><circle cx="711" cy="613" r="1.3" fill="#7A4A21" opacity="0.06"/><circle cx="908" cy="263" r="1.8" fill="#7A4A21" opacity="0.09"/><circle cx="75" cy="536" r="1.8" fill="#7A4A21" opacity="0.10"/><circle cx="1690" cy="275" r="1.9" fill="#7A4A21" opacity="0.10"/><circle cx="2283" cy="768" r="1.0" fill="#7A4A21" opacity="0.07"/><circle cx="1149" cy="329" r="2.2" fill="#7A4A21" opacity="0.07"/><circle cx="2349" cy="8" r="2.3" fill="#7A4A21" opacity="0.05"/><circle cx="1245" cy="149" r="1.5" fill="#7A4A21" opacity="0.08"/><circle cx="2301" cy="41" r="1.5" fill="#7A4A21" opacity="0.05"/><circle cx="1783" cy="144" r="1.2" fill="#7A4A21" opacity="0.10"/><circle cx="113" cy="885" r="1.3" fill="#7A4A21" opacity="0.11"/><circle cx="255" cy="96" r="1.7" fill="#7A4A21" opacity="0.06"/><circle cx="1546" cy="303" r="1.4" fill="#7A4A21" opacity="0.04"/><circle cx="212" cy="3" r="1.6" fill="#7A4A21" opacity="0.10"/><circle cx="1288" cy="323" r="1.6" fill="#7A4A21" opacity="0.09"/><circle cx="2089" cy="93" r="2.0" fill="#7A4A21" opacity="0.06"/><circle cx="2230" cy="725" r="1.9" fill="#7A4A21" opacity="0.09"/><circle cx="1829" cy="71" r="1.4" fill="#7A4A21" opacity="0.04"/><circle cx="370" cy="928" r="1.8" fill="#7A4A21" opacity="0.05"/><circle cx="708" cy="419" r="1.0" fill="#7A4A21" opacity="0.10"/><circle cx="915" cy="56" r="1.7" fill="#7A4A21" opacity="0.07"/><circle cx="1831" cy="263" r="1.2" fill="#7A4A21" opacity="0.08"/><circle cx="971" cy="129" r="2.1" fill="#7A4A21" opacity="0.10"/><circle cx="1995" cy="658" r="1.6" fill="#7A4A21" opacity="0.10"/><circle cx="506" cy="99" r="1.2" fill="#7A4A21" opacity="0.08"/><circle cx="500" cy="436" r="2.3" fill="#7A4A21" opacity="0.08"/><circle cx="478" cy="122" r="0.8" fill="#7A4A21" opacity="0.04"/><circle cx="628" cy="712" r="2.3" fill="#7A4A21" opacity="0.07"/><circle cx="110" cy="560" r="2.5" fill="#7A4A21" opacity="0.04"/><circle cx="1509" cy="998" r="1.4" fill="#7A4A21" opacity="0.08"/><circle cx="1947" cy="666" r="1.1" fill="#7A4A21" opacity="0.10"/><circle cx="1406" cy="660" r="1.9" fill="#7A4A21" opacity="0.10"/><circle cx="1372" cy="923" r="1.0" fill="#7A4A21" opacity="0.04"/><circle cx="330" cy="507" r="2.1" fill="#7A4A21" opacity="0.10"/><circle cx="17" cy="8" r="1.5" fill="#7A4A21" opacity="0.09"/><circle cx="957" cy="280" r="1.2" fill="#7A4A21" opacity="0.09"/><circle cx="1456" cy="953" r="1.4" fill="#7A4A21" opacity="0.07"/><circle cx="2309" cy="700" r="1.3" fill="#7A4A21" opacity="0.09"/><circle cx="1073" cy="90" r="1.0" fill="#7A4A21" opacity="0.07"/><circle cx="747" cy="260" r="2.1" fill="#7A4A21" opacity="0.06"/><circle cx="1082" cy="508" r="0.8" fill="#7A4A21" opacity="0.10"/><circle cx="642" cy="162" r="1.7" fill="#7A4A21" opacity="0.05"/><circle cx="78" cy="114" r="0.9" fill="#7A4A21" opacity="0.06"/><circle cx="783" cy="210" r="1.1" fill="#7A4A21" opacity="0.10"/><circle cx="1382" cy="607" r="0.8" fill="#7A4A21" opacity="0.10"/><circle cx="78" cy="764" r="2.0" fill="#7A4A21" opacity="0.07"/><circle cx="804" cy="541" r="1.8" fill="#7A4A21" opacity="0.10"/><circle cx="136" cy="89" r="1.9" fill="#7A4A21" opacity="0.06"/><circle cx="1392" cy="383" r="0.9" fill="#7A4A21" opacity="0.10"/><circle cx="448" cy="334" r="2.1" fill="#7A4A21" opacity="0.10"/><circle cx="2055" cy="930" r="1.4" fill="#7A4A21" opacity="0.06"/><circle cx="1101" cy="828" r="2.0" fill="#7A4A21" opacity="0.08"/><circle cx="1695" cy="216" r="1.8" fill="#7A4A21" opacity="0.07"/><circle cx="2113" cy="310" r="1.8" fill="#7A4A21" opacity="0.08"/><circle cx="1694" cy="787" r="2.1" fill="#7A4A21" opacity="0.05"/><circle cx="2317" cy="37" r="2.1" fill="#7A4A21" opacity="0.06"/><circle cx="241" cy="362" r="1.0" fill="#7A4A21" opacity="0.05"/><circle cx="2320" cy="812" r="1.5" fill="#7A4A21" opacity="0.07"/><circle cx="1436" cy="318" r="1.0" fill="#7A4A21" opacity="0.07"/><circle cx="2029" cy="960" r="1.9" fill="#7A4A21" opacity="0.10"/><circle cx="1005" cy="786" r="2.3" fill="#7A4A21" opacity="0.10"/><circle cx="464" cy="525" r="0.9" fill="#7A4A21" opacity="0.08"/><circle cx="1134" cy="591" r="1.8" fill="#7A4A21" opacity="0.06"/><circle cx="338" cy="321" r="2.2" fill="#7A4A21" opacity="0.06"/><circle cx="2317" cy="839" r="1.3" fill="#7A4A21" opacity="0.07"/><circle cx="1916" cy="9" r="2.2" fill="#7A4A21" opacity="0.07"/><circle cx="1620" cy="9" r="2.0" fill="#7A4A21" opacity="0.04"/><circle cx="682" cy="614" r="1.9" fill="#7A4A21" opacity="0.07"/><circle cx="619" cy="365" r="1.3" fill="#7A4A21" opacity="0.06"/><circle cx="594" cy="497" r="2.2" fill="#7A4A21" opacity="0.10"/><circle cx="946" cy="945" r="1.4" fill="#7A4A21" opacity="0.10"/><circle cx="1954" cy="753" r="2.4" fill="#7A4A21" opacity="0.08"/><circle cx="2115" cy="273" r="1.7" fill="#7A4A21" opacity="0.08"/><circle cx="1279" cy="60" r="1.3" fill="#7A4A21" opacity="0.08"/><circle cx="881" cy="702" r="2.1" fill="#7A4A21" opacity="0.08"/><circle cx="318" cy="446" r="2.5" fill="#7A4A21" opacity="0.06"/><circle cx="216" cy="769" r="1.5" fill="#7A4A21" opacity="0.05"/><circle cx="1231" cy="915" r="1.8" fill="#7A4A21" opacity="0.05"/><circle cx="21" cy="422" r="1.3" fill="#7A4A21" opacity="0.11"/><circle cx="2120" cy="977" r="2.4" fill="#7A4A21" opacity="0.06"/><circle cx="1525" cy="552" r="1.8" fill="#7A4A21" opacity="0.08"/><circle cx="522" cy="155" r="0.9" fill="#7A4A21" opacity="0.09"/><circle cx="400" cy="864" r="2.0" fill="#7A4A21" opacity="0.06"/><circle cx="2148" cy="92" r="1.2" fill="#7A4A21" opacity="0.10"/><circle cx="889" cy="907" r="1.7" fill="#7A4A21" opacity="0.04"/><circle cx="2233" cy="988" r="1.6" fill="#7A4A21" opacity="0.09"/><circle cx="1639" cy="102" r="2.2" fill="#7A4A21" opacity="0.07"/><circle cx="1666" cy="5" r="1.5" fill="#7A4A21" opacity="0.05"/><circle cx="2224" cy="30" r="0.8" fill="#7A4A21" opacity="0.06"/><circle cx="1961" cy="193" r="2.0" fill="#7A4A21" opacity="0.10"/><circle cx="1429" cy="387" r="2.1" fill="#7A4A21" opacity="0.05"/><circle cx="643" cy="865" r="1.2" fill="#7A4A21" opacity="0.06"/><circle cx="327" cy="534" r="2.5" fill="#7A4A21" opacity="0.05"/><circle cx="1233" cy="894" r="1.0" fill="#7A4A21" opacity="0.07"/><circle cx="720" cy="550" r="2.5" fill="#7A4A21" opacity="0.11"/><circle cx="797" cy="202" r="1.7" fill="#7A4A21" opacity="0.11"/><circle cx="580" cy="272" r="1.5" fill="#7A4A21" opacity="0.11"/><circle cx="713" cy="193" r="1.5" fill="#7A4A21" opacity="0.08"/><circle cx="534" cy="774" r="1.2" fill="#7A4A21" opacity="0.08"/><circle cx="858" cy="884" r="2.6" fill="#7A4A21" opacity="0.07"/><circle cx="959" cy="405" r="1.9" fill="#7A4A21" opacity="0.05"/><circle cx="93" cy="265" r="1.8" fill="#7A4A21" opacity="0.06"/><circle cx="391" cy="551" r="2.5" fill="#7A4A21" opacity="0.11"/><circle cx="592" cy="193" r="2.0" fill="#7A4A21" opacity="0.10"/><circle cx="295" cy="516" r="1.4" fill="#7A4A21" opacity="0.11"/><circle cx="2272" cy="245" r="2.5" fill="#7A4A21" opacity="0.05"/><circle cx="601" cy="938" r="1.4" fill="#7A4A21" opacity="0.11"/><circle cx="1388" cy="630" r="2.5" fill="#7A4A21" opacity="0.09"/><circle cx="778" cy="421" r="1.4" fill="#7A4A21" opacity="0.06"/><circle cx="773" cy="704" r="1.6" fill="#7A4A21" opacity="0.04"/><circle cx="1951" cy="665" r="2.5" fill="#7A4A21" opacity="0.08"/><circle cx="819" cy="798" r="2.1" fill="#7A4A21" opacity="0.08"/><circle cx="1446" cy="369" r="1.3" fill="#7A4A21" opacity="0.04"/><circle cx="1043" cy="510" r="1.1" fill="#7A4A21" opacity="0.11"/><circle cx="2194" cy="325" r="1.0" fill="#7A4A21" opacity="0.05"/><circle cx="1515" cy="761" r="1.6" fill="#7A4A21" opacity="0.09"/><circle cx="595" cy="328" r="1.2" fill="#7A4A21" opacity="0.04"/><circle cx="17" cy="887" r="1.1" fill="#7A4A21" opacity="0.05"/><circle cx="1556" cy="328" r="1.8" fill="#7A4A21" opacity="0.04"/><circle cx="141" cy="480" r="2.5" fill="#7A4A21" opacity="0.05"/><circle cx="345" cy="771" r="2.2" fill="#7A4A21" opacity="0.08"/><circle cx="1748" cy="336" r="1.2" fill="#7A4A21" opacity="0.06"/><circle cx="670" cy="572" r="2.2" fill="#7A4A21" opacity="0.10"/><circle cx="1590" cy="191" r="2.1" fill="#7A4A21" opacity="0.06"/><circle cx="325" cy="425" r="2.6" fill="#7A4A21" opacity="0.07"/><circle cx="1629" cy="779" r="1.9" fill="#7A4A21" opacity="0.05"/><circle cx="1568" cy="680" r="1.3" fill="#7A4A21" opacity="0.05"/><circle cx="138" cy="696" r="2.4" fill="#7A4A21" opacity="0.04"/><circle cx="984" cy="793" r="2.3" fill="#7A4A21" opacity="0.09"/><circle cx="380" cy="352" r="0.9" fill="#7A4A21" opacity="0.07"/><circle cx="1787" cy="261" r="2.6" fill="#7A4A21" opacity="0.06"/><circle cx="1182" cy="545" r="1.7" fill="#7A4A21" opacity="0.09"/><circle cx="1220" cy="808" r="1.8" fill="#7A4A21" opacity="0.11"/><circle cx="2016" cy="889" r="2.5" fill="#7A4A21" opacity="0.09"/><circle cx="1014" cy="180" r="1.2" fill="#7A4A21" opacity="0.07"/><circle cx="1823" cy="479" r="0.9" fill="#7A4A21" opacity="0.06"/><circle cx="1309" cy="177" r="2.4" fill="#7A4A21" opacity="0.06"/><circle cx="271" cy="914" r="1.6" fill="#7A4A21" opacity="0.05"/><circle cx="223" cy="525" r="2.5" fill="#7A4A21" opacity="0.06"/><circle cx="870" cy="862" r="2.0" fill="#7A4A21" opacity="0.09"/><circle cx="5" cy="860" r="2.6" fill="#7A4A21" opacity="0.07"/><circle cx="1943" cy="124" r="1.3" fill="#7A4A21" opacity="0.10"/><circle cx="533" cy="380" r="1.4" fill="#7A4A21" opacity="0.05"/><circle cx="2170" cy="84" r="2.5" fill="#7A4A21" opacity="0.06"/><circle cx="1589" cy="340" r="1.3" fill="#7A4A21" opacity="0.08"/><circle cx="2235" cy="634" r="1.2" fill="#7A4A21" opacity="0.08"/><circle cx="1627" cy="983" r="1.5" fill="#7A4A21" opacity="0.10"/><circle cx="1107" cy="991" r="1.8" fill="#7A4A21" opacity="0.06"/><circle cx="1719" cy="920" r="1.1" fill="#7A4A21" opacity="0.07"/><circle cx="1143" cy="921" r="2.4" fill="#7A4A21" opacity="0.06"/><circle cx="1547" cy="651" r="1.8" fill="#7A4A21" opacity="0.04"/><circle cx="1007" cy="909" r="1.3" fill="#7A4A21" opacity="0.11"/><circle cx="1841" cy="397" r="1.2" fill="#7A4A21" opacity="0.05"/><circle cx="2092" cy="616" r="2.3" fill="#7A4A21" opacity="0.07"/><circle cx="1535" cy="326" r="1.1" fill="#7A4A21" opacity="0.07"/><circle cx="487" cy="475" r="1.4" fill="#7A4A21" opacity="0.05"/><circle cx="735" cy="894" r="2.4" fill="#7A4A21" opacity="0.10"/><circle cx="525" cy="459" r="2.0" fill="#7A4A21" opacity="0.05"/><circle cx="936" cy="768" r="2.5" fill="#7A4A21" opacity="0.05"/><circle cx="1214" cy="496" r="1.6" fill="#7A4A21" opacity="0.10"/><circle cx="36" cy="820" r="2.3" fill="#7A4A21" opacity="0.07"/><circle cx="1809" cy="775" r="1.5" fill="#7A4A21" opacity="0.05"/><circle cx="544" cy="941" r="1.4" fill="#7A4A21" opacity="0.09"/><circle cx="203" cy="800" r="1.3" fill="#7A4A21" opacity="0.09"/><circle cx="695" cy="732" r="2.1" fill="#7A4A21" opacity="0.11"/><circle cx="484" cy="418" r="2.4" fill="#7A4A21" opacity="0.08"/><circle cx="241" cy="101" r="1.9" fill="#7A4A21" opacity="0.05"/><circle cx="179" cy="453" r="1.3" fill="#7A4A21" opacity="0.07"/><circle cx="1161" cy="660" r="1.1" fill="#7A4A21" opacity="0.11"/><circle cx="192" cy="799" r="1.5" fill="#7A4A21" opacity="0.07"/><circle cx="1395" cy="396" r="1.6" fill="#7A4A21" opacity="0.11"/><circle cx="1434" cy="551" r="1.3" fill="#7A4A21" opacity="0.11"/><circle cx="1595" cy="306" r="2.5" fill="#7A4A21" opacity="0.06"/><circle cx="2273" cy="949" r="2.3" fill="#7A4A21" opacity="0.06"/><circle cx="2275" cy="504" r="0.8" fill="#7A4A21" opacity="0.07"/><circle cx="1289" cy="413" r="0.8" fill="#7A4A21" opacity="0.05"/><circle cx="538" cy="333" r="1.3" fill="#7A4A21" opacity="0.08"/><circle cx="1902" cy="590" r="1.7" fill="#7A4A21" opacity="0.06"/><circle cx="1038" cy="315" r="1.5" fill="#7A4A21" opacity="0.06"/><circle cx="2339" cy="541" r="1.5" fill="#7A4A21" opacity="0.10"/><circle cx="1426" cy="858" r="2.3" fill="#7A4A21" opacity="0.11"/><circle cx="652" cy="668" r="2.4" fill="#7A4A21" opacity="0.07"/><circle cx="2141" cy="69" r="0.9" fill="#7A4A21" opacity="0.05"/><circle cx="801" cy="234" r="1.3" fill="#7A4A21" opacity="0.08"/><circle cx="1417" cy="307" r="2.4" fill="#7A4A21" opacity="0.11"/><circle cx="2337" cy="723" r="2.5" fill="#7A4A21" opacity="0.09"/><circle cx="2236" cy="491" r="2.6" fill="#7A4A21" opacity="0.04"/><circle cx="1714" cy="686" r="1.0" fill="#7A4A21" opacity="0.10"/><circle cx="888" cy="910" r="2.6" fill="#7A4A21" opacity="0.07"/><circle cx="2369" cy="159" r="1.2" fill="#7A4A21" opacity="0.10"/><circle cx="1837" cy="302" r="1.5" fill="#7A4A21" opacity="0.07"/><circle cx="1732" cy="37" r="1.8" fill="#7A4A21" opacity="0.09"/><circle cx="1743" cy="64" r="1.2" fill="#7A4A21" opacity="0.06"/><circle cx="1041" cy="677" r="1.7" fill="#7A4A21" opacity="0.07"/><circle cx="1011" cy="836" r="2.5" fill="#7A4A21" opacity="0.09"/><circle cx="698" cy="56" r="1.9" fill="#7A4A21" opacity="0.04"/><circle cx="554" cy="112" r="1.2" fill="#7A4A21" opacity="0.04"/><circle cx="147" cy="957" r="2.4" fill="#7A4A21" opacity="0.04"/><circle cx="2075" cy="804" r="2.5" fill="#7A4A21" opacity="0.10"/><circle cx="690" cy="730" r="1.0" fill="#7A4A21" opacity="0.08"/><circle cx="1951" cy="69" r="1.1" fill="#7A4A21" opacity="0.11"/><circle cx="1073" cy="192" r="1.5" fill="#7A4A21" opacity="0.06"/><circle cx="38" cy="827" r="1.5" fill="#7A4A21" opacity="0.08"/><circle cx="1595" cy="947" r="2.3" fill="#7A4A21" opacity="0.08"/><circle cx="887" cy="615" r="1.2" fill="#7A4A21" opacity="0.05"/><circle cx="1705" cy="952" r="2.4" fill="#7A4A21" opacity="0.05"/><circle cx="1737" cy="709" r="2.1" fill="#7A4A21" opacity="0.07"/><circle cx="1153" cy="786" r="1.1" fill="#7A4A21" opacity="0.07"/><circle cx="242" cy="623" r="1.3" fill="#7A4A21" opacity="0.09"/><circle cx="83" cy="904" r="1.7" fill="#7A4A21" opacity="0.07"/><circle cx="182" cy="295" r="2.0" fill="#7A4A21" opacity="0.07"/><circle cx="415" cy="110" r="1.8" fill="#7A4A21" opacity="0.04"/><circle cx="1353" cy="464" r="1.8" fill="#7A4A21" opacity="0.05"/><circle cx="2000" cy="150" r="2.1" fill="#7A4A21" opacity="0.09"/><circle cx="2061" cy="600" r="1.9" fill="#7A4A21" opacity="0.08"/><circle cx="818" cy="245" r="1.2" fill="#7A4A21" opacity="0.10"/><circle cx="1276" cy="470" r="2.5" fill="#7A4A21" opacity="0.09"/><circle cx="1609" cy="670" r="1.1" fill="#7A4A21" opacity="0.08"/>
    <rect x="26" y="26" width="2348" height="948" fill="none" stroke="#B8860B" stroke-width="3"/>
    <rect x="38" y="38" width="2324" height="924" fill="none" stroke="#B8860B" stroke-width="1.4" opacity="0.8"/>

    
    <g transform="translate(96,82)">
      <rect x="0" y="0" width="52" height="52" fill="#F6EDDA" stroke="#6E3A1F" stroke-width="4"/>
      <path d="M26.0,10.4 L42.64,40.56 L9.36,40.56 Z" fill="#6E3A1F"/>
      <text x="26.0" y="78" font-family="'Avenir Next', 'Helvetica Neue', sans-serif" font-size="17" font-weight="600" fill="#6E3A1F" text-anchor="middle" letter-spacing="1">NON-VEG</text>
    </g>
    <text x="1200" y="112" font-family="'Avenir Next', 'Helvetica Neue', sans-serif" font-weight="700" font-size="36" letter-spacing="5" fill="#1E4023" text-anchor="middle">M R ENTERPRISE (AGRO PRODUCTS)</text>
    <text x="1200" y="172" font-family="Baskerville, Georgia, serif" font-style="italic" font-size="32" fill="#7A4A21" text-anchor="middle">Healthy food comes from healthy farms &#8212; free-range hens, organic feed,</text>
    <text x="1200" y="214" font-family="Baskerville, Georgia, serif" font-style="italic" font-size="32" fill="#7A4A21" text-anchor="middle">richer taste and better nutrition in every egg.</text>
    <g transform="translate(2196,70)">
    <g transform="scale(0.42)">
      <!-- egg -->
      <path d="M100,8 C140,8 166,64 166,118 C166,168 138,198 100,198 C62,198 34,168 34,118 C34,64 60,8 100,8 Z"
            fill="none" stroke="#1E4023" stroke-width="9"/>
      <path d="M100,30 C130,30 150,74 150,116 C150,156 128,180 100,180 C72,180 50,156 50,116 C50,74 70,30 100,30 Z"
            fill="#1E4023"/>
      <path d="M78,60 C70,80 66,100 68,120" stroke="#F6EDDA" stroke-width="7" fill="none" stroke-linecap="round" opacity="0.85"/>
      <!-- leaves at base -->
      <path d="M100,196 C64,210 34,206 18,182 C48,172 82,176 100,196 Z" fill="#1E4023" stroke="#B8860B" stroke-width="3"/>
      <path d="M100,196 C136,210 166,206 182,182 C152,172 118,176 100,196 Z" fill="#1E4023" stroke="#B8860B" stroke-width="3"/>
      <path d="M100,244 C84,224 84,206 100,190 C116,206 116,224 100,244 Z" fill="#1E4023" stroke="#B8860B" stroke-width="3"/>
      <path d="M100,238 L100,196 M100,214 L88,204 M100,214 L112,204" stroke="#B8860B" stroke-width="2.5" fill="none"/>
    </g></g>
    <path d="M96,262 L2304,262" stroke="#B8860B" stroke-width="1.6" opacity="0.8"/>

    <!-- col A: nutrition + barcode -->
    
    <g>
      <rect x="96" y="310" width="600" height="370" fill="none" stroke="#1E4023" stroke-width="4"/>
      <rect x="96" y="310" width="600" height="50" fill="#1E4023"/>
      <text x="396.0" y="343" font-family="'Avenir Next', 'Helvetica Neue', sans-serif" font-weight="700" font-size="22" fill="#F6EDDA" text-anchor="middle" letter-spacing="0.5">NUTRITION INFORMATION (Per 100 g)</text>
      <rect x="96" y="360" width="600" height="40" fill="#F6EDDA" opacity="0.55"/>
        <text x="118" y="388" font-family="'Avenir Next', 'Helvetica Neue', sans-serif" font-size="25" font-weight="500" fill="#16341C">Energy</text>
        <text x="674" y="388" font-family="'Avenir Next', 'Helvetica Neue', sans-serif" font-size="25" font-weight="600" fill="#16341C" text-anchor="end">156 kcal</text><rect x="96" y="400" width="600" height="40" fill="#F6EDDA" opacity="0.25"/>
        <text x="118" y="428" font-family="'Avenir Next', 'Helvetica Neue', sans-serif" font-size="25" font-weight="500" fill="#16341C">Protein</text>
        <text x="674" y="428" font-family="'Avenir Next', 'Helvetica Neue', sans-serif" font-size="25" font-weight="600" fill="#16341C" text-anchor="end">13.19 g</text><rect x="96" y="440" width="600" height="40" fill="#F6EDDA" opacity="0.55"/>
        <text x="118" y="468" font-family="'Avenir Next', 'Helvetica Neue', sans-serif" font-size="25" font-weight="500" fill="#16341C">Total Fat</text>
        <text x="674" y="468" font-family="'Avenir Next', 'Helvetica Neue', sans-serif" font-size="25" font-weight="600" fill="#16341C" text-anchor="end">11.09 g</text><rect x="96" y="480" width="600" height="40" fill="#F6EDDA" opacity="0.25"/>
        <text x="118" y="508" font-family="'Avenir Next', 'Helvetica Neue', sans-serif" font-size="25" font-weight="500" fill="#16341C">Saturated Fat</text>
        <text x="674" y="508" font-family="'Avenir Next', 'Helvetica Neue', sans-serif" font-size="25" font-weight="600" fill="#16341C" text-anchor="end">3.31 g</text><rect x="96" y="520" width="600" height="40" fill="#F6EDDA" opacity="0.55"/>
        <text x="118" y="548" font-family="'Avenir Next', 'Helvetica Neue', sans-serif" font-size="25" font-weight="500" fill="#16341C">Carbohydrates</text>
        <text x="674" y="548" font-family="'Avenir Next', 'Helvetica Neue', sans-serif" font-size="25" font-weight="600" fill="#16341C" text-anchor="end">0.60 g</text><rect x="96" y="560" width="600" height="40" fill="#F6EDDA" opacity="0.25"/>
        <text x="118" y="588" font-family="'Avenir Next', 'Helvetica Neue', sans-serif" font-size="25" font-weight="500" fill="#16341C">Total Sugar</text>
        <text x="674" y="588" font-family="'Avenir Next', 'Helvetica Neue', sans-serif" font-size="25" font-weight="600" fill="#16341C" text-anchor="end">0 g</text><rect x="96" y="600" width="600" height="40" fill="#F6EDDA" opacity="0.55"/>
        <text x="118" y="628" font-family="'Avenir Next', 'Helvetica Neue', sans-serif" font-size="25" font-weight="500" fill="#16341C">Added Sugar</text>
        <text x="674" y="628" font-family="'Avenir Next', 'Helvetica Neue', sans-serif" font-size="25" font-weight="600" fill="#16341C" text-anchor="end">0 g</text><rect x="96" y="640" width="600" height="40" fill="#F6EDDA" opacity="0.25"/>
        <text x="118" y="668" font-family="'Avenir Next', 'Helvetica Neue', sans-serif" font-size="25" font-weight="500" fill="#16341C">Cholesterol</text>
        <text x="674" y="668" font-family="'Avenir Next', 'Helvetica Neue', sans-serif" font-size="25" font-weight="600" fill="#16341C" text-anchor="end">373.61 mg</text>
    </g>
    <g><rect x="146" y="770" width="4" height="84" fill="#16341C"/><rect x="152" y="770" width="6" height="84" fill="#16341C"/><rect x="162" y="770" width="3" height="84" fill="#16341C"/><rect x="182" y="770" width="3" height="84" fill="#16341C"/><rect x="188" y="770" width="6" height="84" fill="#16341C"/><rect x="196" y="770" width="4" height="84" fill="#16341C"/><rect x="204" y="770" width="3" height="84" fill="#16341C"/><rect x="215" y="770" width="3" height="84" fill="#16341C"/><rect x="236" y="770" width="3" height="84" fill="#16341C"/><rect x="247" y="770" width="3" height="84" fill="#16341C"/><rect x="254" y="770" width="8" height="84" fill="#16341C"/><rect x="264" y="770" width="3" height="84" fill="#16341C"/><rect x="290" y="770" width="6" height="84" fill="#16341C"/><rect x="322" y="770" width="8" height="84" fill="#16341C"/><rect x="334" y="770" width="3" height="84" fill="#16341C"/><rect x="340" y="770" width="8" height="84" fill="#16341C"/><rect x="350" y="770" width="3" height="84" fill="#16341C"/><rect x="357" y="770" width="4" height="84" fill="#16341C"/><rect x="364" y="770" width="4" height="84" fill="#16341C"/><rect x="376" y="770" width="3" height="84" fill="#16341C"/><rect x="382" y="770" width="3" height="84" fill="#16341C"/><rect x="389" y="770" width="8" height="84" fill="#16341C"/><rect x="399" y="770" width="6" height="84" fill="#16341C"/><rect x="418" y="770" width="6" height="84" fill="#16341C"/><rect x="428" y="770" width="3" height="84" fill="#16341C"/><rect x="433" y="770" width="3" height="84" fill="#16341C"/><rect x="439" y="770" width="6" height="84" fill="#16341C"/><rect x="448" y="770" width="3" height="84" fill="#16341C"/><rect x="453" y="770" width="4" height="84" fill="#16341C"/><rect x="468" y="770" width="3" height="84" fill="#16341C"/><rect x="475" y="770" width="3" height="84" fill="#16341C"/><rect x="490" y="770" width="8" height="84" fill="#16341C"/><rect x="501" y="770" width="3" height="84" fill="#16341C"/><rect x="507" y="770" width="3" height="84" fill="#16341C"/><rect x="514" y="770" width="6" height="84" fill="#16341C"/>
      <text x="330.0" y="884" font-family="'Avenir Next', 'Helvetica Neue', sans-serif" font-size="24" letter-spacing="4" fill="#16341C" text-anchor="middle">8 906123 401234</text></g>

    <!-- col B: food info -->
    
      <text x="810" y="336" font-family="'Avenir Next', 'Helvetica Neue', sans-serif" font-weight="700" font-size="25" letter-spacing="1.5" fill="#1E4023">INGREDIENTS</text>
      <path d="M810,348 L866,348" stroke="#B8860B" stroke-width="2.4"/>
      <text x="810" y="374" font-family="'Avenir Next', 'Helvetica Neue', sans-serif" font-size="25" fill="#16341C">Organic Country Eggs (100%)</text>
    
      <text x="810" y="452" font-family="'Avenir Next', 'Helvetica Neue', sans-serif" font-weight="700" font-size="25" letter-spacing="1.5" fill="#1E4023">ALLERGEN DECLARATION</text>
      <path d="M810,464 L866,464" stroke="#B8860B" stroke-width="2.4"/>
      <text x="810" y="490" font-family="'Avenir Next', 'Helvetica Neue', sans-serif" font-size="25" fill="#16341C">Contains Egg</text>
    
      <text x="810" y="568" font-family="'Avenir Next', 'Helvetica Neue', sans-serif" font-weight="700" font-size="25" letter-spacing="1.5" fill="#1E4023">STORAGE INSTRUCTIONS</text>
      <path d="M810,580 L866,580" stroke="#B8860B" stroke-width="2.4"/>
      <text x="810" y="606" font-family="'Avenir Next', 'Helvetica Neue', sans-serif" font-size="25" fill="#16341C">Store in a cool and dry place.</text><text x="810" y="640" font-family="'Avenir Next', 'Helvetica Neue', sans-serif" font-size="25" fill="#16341C">Refrigerate for longer freshness.</text>
    
      <text x="810" y="718" font-family="'Avenir Next', 'Helvetica Neue', sans-serif" font-weight="700" font-size="25" letter-spacing="1.5" fill="#1E4023">BEST BEFORE</text>
      <path d="M810,730 L866,730" stroke="#B8860B" stroke-width="2.4"/>
      <text x="810" y="756" font-family="'Avenir Next', 'Helvetica Neue', sans-serif" font-size="25" fill="#16341C">Best before 21 days from packing.</text>
    
      <text x="810" y="834" font-family="'Avenir Next', 'Helvetica Neue', sans-serif" font-weight="700" font-size="25" letter-spacing="1.5" fill="#1E4023">EGG SIZE &amp; COLOUR</text>
      <path d="M810,846 L866,846" stroke="#B8860B" stroke-width="2.4"/>
      <text x="810" y="872" font-family="'Avenir Next', 'Helvetica Neue', sans-serif" font-size="25" fill="#16341C">Large &#8226; Country Brown</text>

    <!-- col C: statutory -->
    
      <text x="1560" y="336" font-family="'Avenir Next', 'Helvetica Neue', sans-serif" font-weight="700" font-size="25" letter-spacing="1.5" fill="#1E4023">MANUFACTURER / MARKETER</text>
      <path d="M1560,348 L1616,348" stroke="#B8860B" stroke-width="2.4"/>
      <text x="1560" y="374" font-family="'Avenir Next', 'Helvetica Neue', sans-serif" font-size="25" fill="#16341C">M R Enterprise (Agro Products)</text><text x="1560" y="408" font-family="'Avenir Next', 'Helvetica Neue', sans-serif" font-size="25" fill="#16341C">[Complete Address]</text>
    
      <text x="1560" y="486" font-family="'Avenir Next', 'Helvetica Neue', sans-serif" font-weight="700" font-size="25" letter-spacing="1.5" fill="#1E4023">CUSTOMER CARE</text>
      <path d="M1560,498 L1616,498" stroke="#B8860B" stroke-width="2.4"/>
      <text x="1560" y="524" font-family="'Avenir Next', 'Helvetica Neue', sans-serif" font-size="25" fill="#16341C">[Phone] &#8226; [Email]</text>
    <g transform="translate(1560,590)">
      <rect width="128" height="52" rx="8" fill="none" stroke="#1E4023" stroke-width="3"/>
      <text x="64" y="36" font-family="'Avenir Next', 'Helvetica Neue', sans-serif" font-weight="800" font-size="27" fill="#1E4023" text-anchor="middle">fssai</text>
      <text x="150" y="34" font-family="'Avenir Next', 'Helvetica Neue', sans-serif" font-size="25" fill="#16341C">Lic. No.: ______________</text>
    </g>
    
      <text x="1560" y="718" font-family="'Avenir Next', 'Helvetica Neue', sans-serif" font-weight="700" font-size="25" letter-spacing="1.5" fill="#1E4023">NET QUANTITY</text>
      <path d="M1560,730 L1616,730" stroke="#B8860B" stroke-width="2.4"/>
      <text x="1560" y="756" font-family="'Avenir Next', 'Helvetica Neue', sans-serif" font-size="25" fill="#16341C">6 Eggs / 12 Eggs / 30 Eggs</text>
    <text x="1560" y="852" font-family="'Avenir Next', 'Helvetica Neue', sans-serif" font-size="25" fill="#16341C">Batch No.: ________  Packed On: ________</text>
    <text x="1560" y="890" font-family="'Avenir Next', 'Helvetica Neue', sans-serif" font-size="25" fill="#16341C">MRP (Incl. of all Taxes): &#8377; ________</text>

    <!-- QR far right -->
    <g><rect x="2130.0" y="336.0" width="56.0" height="56.0" fill="none" stroke="#16341C" stroke-width="8.0"/><rect x="2146.0" y="352.0" width="24.0" height="24.0" fill="#16341C"/><rect x="2242.0" y="336.0" width="56.0" height="56.0" fill="none" stroke="#16341C" stroke-width="8.0"/><rect x="2258.0" y="352.0" width="24.0" height="24.0" fill="#16341C"/><rect x="2130.0" y="448.0" width="56.0" height="56.0" fill="none" stroke="#16341C" stroke-width="8.0"/><rect x="2146.0" y="464.0" width="24.0" height="24.0" fill="#16341C"/><rect x="2194.0" y="336.0" width="8.0" height="8.0" fill="#16341C"/><rect x="2202.0" y="336.0" width="8.0" height="8.0" fill="#16341C"/><rect x="2210.0" y="336.0" width="8.0" height="8.0" fill="#16341C"/><rect x="2226.0" y="336.0" width="8.0" height="8.0" fill="#16341C"/><rect x="2194.0" y="344.0" width="8.0" height="8.0" fill="#16341C"/><rect x="2202.0" y="344.0" width="8.0" height="8.0" fill="#16341C"/><rect x="2218.0" y="344.0" width="8.0" height="8.0" fill="#16341C"/><rect x="2226.0" y="344.0" width="8.0" height="8.0" fill="#16341C"/><rect x="2202.0" y="352.0" width="8.0" height="8.0" fill="#16341C"/><rect x="2210.0" y="352.0" width="8.0" height="8.0" fill="#16341C"/><rect x="2226.0" y="352.0" width="8.0" height="8.0" fill="#16341C"/><rect x="2194.0" y="360.0" width="8.0" height="8.0" fill="#16341C"/><rect x="2194.0" y="368.0" width="8.0" height="8.0" fill="#16341C"/><rect x="2202.0" y="368.0" width="8.0" height="8.0" fill="#16341C"/><rect x="2218.0" y="368.0" width="8.0" height="8.0" fill="#16341C"/><rect x="2226.0" y="368.0" width="8.0" height="8.0" fill="#16341C"/><rect x="2194.0" y="376.0" width="8.0" height="8.0" fill="#16341C"/><rect x="2202.0" y="376.0" width="8.0" height="8.0" fill="#16341C"/><rect x="2226.0" y="376.0" width="8.0" height="8.0" fill="#16341C"/><rect x="2210.0" y="384.0" width="8.0" height="8.0" fill="#16341C"/><rect x="2218.0" y="384.0" width="8.0" height="8.0" fill="#16341C"/><rect x="2226.0" y="392.0" width="8.0" height="8.0" fill="#16341C"/><rect x="2170.0" y="400.0" width="8.0" height="8.0" fill="#16341C"/><rect x="2178.0" y="400.0" width="8.0" height="8.0" fill="#16341C"/><rect x="2186.0" y="400.0" width="8.0" height="8.0" fill="#16341C"/><rect x="2258.0" y="400.0" width="8.0" height="8.0" fill="#16341C"/><rect x="2290.0" y="400.0" width="8.0" height="8.0" fill="#16341C"/><rect x="2130.0" y="408.0" width="8.0" height="8.0" fill="#16341C"/><rect x="2170.0" y="408.0" width="8.0" height="8.0" fill="#16341C"/><rect x="2186.0" y="408.0" width="8.0" height="8.0" fill="#16341C"/><rect x="2202.0" y="408.0" width="8.0" height="8.0" fill="#16341C"/><rect x="2226.0" y="408.0" width="8.0" height="8.0" fill="#16341C"/><rect x="2234.0" y="408.0" width="8.0" height="8.0" fill="#16341C"/><rect x="2258.0" y="408.0" width="8.0" height="8.0" fill="#16341C"/><rect x="2282.0" y="408.0" width="8.0" height="8.0" fill="#16341C"/><rect x="2290.0" y="408.0" width="8.0" height="8.0" fill="#16341C"/><rect x="2162.0" y="416.0" width="8.0" height="8.0" fill="#16341C"/><rect x="2170.0" y="416.0" width="8.0" height="8.0" fill="#16341C"/><rect x="2202.0" y="416.0" width="8.0" height="8.0" fill="#16341C"/><rect x="2234.0" y="416.0" width="8.0" height="8.0" fill="#16341C"/><rect x="2242.0" y="416.0" width="8.0" height="8.0" fill="#16341C"/><rect x="2258.0" y="416.0" width="8.0" height="8.0" fill="#16341C"/><rect x="2266.0" y="416.0" width="8.0" height="8.0" fill="#16341C"/><rect x="2274.0" y="416.0" width="8.0" height="8.0" fill="#16341C"/><rect x="2282.0" y="416.0" width="8.0" height="8.0" fill="#16341C"/><rect x="2130.0" y="424.0" width="8.0" height="8.0" fill="#16341C"/><rect x="2138.0" y="424.0" width="8.0" height="8.0" fill="#16341C"/><rect x="2146.0" y="424.0" width="8.0" height="8.0" fill="#16341C"/><rect x="2154.0" y="424.0" width="8.0" height="8.0" fill="#16341C"/><rect x="2162.0" y="424.0" width="8.0" height="8.0" fill="#16341C"/><rect x="2178.0" y="424.0" width="8.0" height="8.0" fill="#16341C"/><rect x="2186.0" y="424.0" width="8.0" height="8.0" fill="#16341C"/><rect x="2194.0" y="424.0" width="8.0" height="8.0" fill="#16341C"/><rect x="2226.0" y="424.0" width="8.0" height="8.0" fill="#16341C"/><rect x="2234.0" y="424.0" width="8.0" height="8.0" fill="#16341C"/><rect x="2258.0" y="424.0" width="8.0" height="8.0" fill="#16341C"/><rect x="2274.0" y="424.0" width="8.0" height="8.0" fill="#16341C"/><rect x="2282.0" y="424.0" width="8.0" height="8.0" fill="#16341C"/><rect x="2290.0" y="424.0" width="8.0" height="8.0" fill="#16341C"/><rect x="2130.0" y="432.0" width="8.0" height="8.0" fill="#16341C"/><rect x="2138.0" y="432.0" width="8.0" height="8.0" fill="#16341C"/><rect x="2154.0" y="432.0" width="8.0" height="8.0" fill="#16341C"/><rect x="2170.0" y="432.0" width="8.0" height="8.0" fill="#16341C"/><rect x="2178.0" y="432.0" width="8.0" height="8.0" fill="#16341C"/><rect x="2210.0" y="432.0" width="8.0" height="8.0" fill="#16341C"/><rect x="2218.0" y="432.0" width="8.0" height="8.0" fill="#16341C"/><rect x="2250.0" y="432.0" width="8.0" height="8.0" fill="#16341C"/><rect x="2258.0" y="432.0" width="8.0" height="8.0" fill="#16341C"/><rect x="2266.0" y="432.0" width="8.0" height="8.0" fill="#16341C"/><rect x="2274.0" y="432.0" width="8.0" height="8.0" fill="#16341C"/><rect x="2282.0" y="432.0" width="8.0" height="8.0" fill="#16341C"/><rect x="2290.0" y="432.0" width="8.0" height="8.0" fill="#16341C"/><rect x="2210.0" y="440.0" width="8.0" height="8.0" fill="#16341C"/><rect x="2218.0" y="440.0" width="8.0" height="8.0" fill="#16341C"/><rect x="2226.0" y="448.0" width="8.0" height="8.0" fill="#16341C"/><rect x="2234.0" y="448.0" width="8.0" height="8.0" fill="#16341C"/><rect x="2250.0" y="448.0" width="8.0" height="8.0" fill="#16341C"/><rect x="2210.0" y="456.0" width="8.0" height="8.0" fill="#16341C"/><rect x="2250.0" y="456.0" width="8.0" height="8.0" fill="#16341C"/><rect x="2282.0" y="456.0" width="8.0" height="8.0" fill="#16341C"/><rect x="2202.0" y="464.0" width="8.0" height="8.0" fill="#16341C"/><rect x="2210.0" y="464.0" width="8.0" height="8.0" fill="#16341C"/><rect x="2218.0" y="464.0" width="8.0" height="8.0" fill="#16341C"/><rect x="2234.0" y="464.0" width="8.0" height="8.0" fill="#16341C"/><rect x="2258.0" y="464.0" width="8.0" height="8.0" fill="#16341C"/><rect x="2274.0" y="464.0" width="8.0" height="8.0" fill="#16341C"/><rect x="2290.0" y="464.0" width="8.0" height="8.0" fill="#16341C"/><rect x="2202.0" y="472.0" width="8.0" height="8.0" fill="#16341C"/><rect x="2226.0" y="472.0" width="8.0" height="8.0" fill="#16341C"/><rect x="2242.0" y="472.0" width="8.0" height="8.0" fill="#16341C"/><rect x="2258.0" y="472.0" width="8.0" height="8.0" fill="#16341C"/><rect x="2266.0" y="472.0" width="8.0" height="8.0" fill="#16341C"/><rect x="2274.0" y="472.0" width="8.0" height="8.0" fill="#16341C"/><rect x="2290.0" y="472.0" width="8.0" height="8.0" fill="#16341C"/><rect x="2194.0" y="480.0" width="8.0" height="8.0" fill="#16341C"/><rect x="2202.0" y="480.0" width="8.0" height="8.0" fill="#16341C"/><rect x="2234.0" y="480.0" width="8.0" height="8.0" fill="#16341C"/><rect x="2202.0" y="488.0" width="8.0" height="8.0" fill="#16341C"/><rect x="2226.0" y="488.0" width="8.0" height="8.0" fill="#16341C"/><rect x="2234.0" y="488.0" width="8.0" height="8.0" fill="#16341C"/><rect x="2242.0" y="488.0" width="8.0" height="8.0" fill="#16341C"/><rect x="2250.0" y="488.0" width="8.0" height="8.0" fill="#16341C"/><rect x="2266.0" y="488.0" width="8.0" height="8.0" fill="#16341C"/><rect x="2274.0" y="488.0" width="8.0" height="8.0" fill="#16341C"/><rect x="2282.0" y="488.0" width="8.0" height="8.0" fill="#16341C"/><rect x="2290.0" y="488.0" width="8.0" height="8.0" fill="#16341C"/><rect x="2202.0" y="496.0" width="8.0" height="8.0" fill="#16341C"/><rect x="2210.0" y="496.0" width="8.0" height="8.0" fill="#16341C"/><rect x="2218.0" y="496.0" width="8.0" height="8.0" fill="#16341C"/><rect x="2250.0" y="496.0" width="8.0" height="8.0" fill="#16341C"/><rect x="2258.0" y="496.0" width="8.0" height="8.0" fill="#16341C"/><rect x="2282.0" y="496.0" width="8.0" height="8.0" fill="#16341C"/>
      <text x="2214.0" y="536" font-family="'Avenir Next', 'Helvetica Neue', sans-serif" font-size="21" fill="#16341C" text-anchor="middle">Scan for Farm Information</text></g>
    <path d="M2070,310 L2070,880" stroke="#B8860B" stroke-width="1.4" opacity="0.6"/>
    <path d="M770,310 L770,880" stroke="#B8860B" stroke-width="1.4" opacity="0.6"/>
    <path d="M1520,310 L1520,880" stroke="#B8860B" stroke-width="1.4" opacity="0.6"/>

    <rect x="0" y="932" width="2400" height="68" fill="#1E4023"/>
    <rect x="0" y="928" width="2400" height="3" fill="#D4A93C"/>
    <text x="1200" y="976" font-family="'Avenir Next', 'Helvetica Neue', sans-serif" font-weight="600" font-size="26" letter-spacing="4" fill="#F6EDDA" text-anchor="middle">EGGSHELL ORGANIC &#8226; DAILY PROTEIN, THE NATURAL WAY.</text>
  </g>
<defs>
    <linearGradient id="aoV" x1="0" y1="0" x2="0" y2="1">
      <stop offset="0" stop-color="#2E2008" stop-opacity="0.16"/><stop offset="1" stop-color="#2E2008" stop-opacity="0"/>
    </linearGradient>
    <linearGradient id="aoH" x1="0" y1="0" x2="1" y2="0">
      <stop offset="0" stop-color="#2E2008" stop-opacity="0.16"/><stop offset="1" stop-color="#2E2008" stop-opacity="0"/>
    </linearGradient>
    <linearGradient id="aoVb" x1="0" y1="1" x2="0" y2="0">
      <stop offset="0" stop-color="#2E2008" stop-opacity="0.16"/><stop offset="1" stop-color="#2E2008" stop-opacity="0"/>
    </linearGradient>
    <linearGradient id="aoHr" x1="1" y1="0" x2="0" y2="0">
      <stop offset="0" stop-color="#2E2008" stop-opacity="0.16"/><stop offset="1" stop-color="#2E2008" stop-opacity="0"/>
    </linearGradient>
    <linearGradient id="sheenV" x1="0" y1="0" x2="0" y2="1">
      <stop offset="0" stop-color="#FFF6E0" stop-opacity="0.10"/><stop offset="0.3" stop-color="#FFF6E0" stop-opacity="0"/>
    </linearGradient>
  </defs>
  <rect width="2400" height="55" fill="url(#aoV)"/>
  <rect y="945" width="2400" height="55" fill="url(#aoVb)"/>
  <rect width="55" height="1000" fill="url(#aoH)"/>
  <rect x="2345" width="55" height="1000" fill="url(#aoHr)"/>
  <rect width="2400" height="1000" fill="url(#sheenV)"/>
</svg>