<svg xmlns="http://www.w3.org/2000/svg" width="2400" height="760" viewBox="0 0 2400 760">
  <defs>
    <linearGradient id="kraftg" x1="0" y1="0" x2="0" y2="1">
      <stop offset="0" stop-color="#E2C79C"/><stop offset="0.55" stop-color="#D9BC8F"/><stop offset="1" stop-color="#C9A876"/>
    </linearGradient>
  </defs>

  <g>
    <rect width="2400" height="760" fill="url(#kraftg)"/>
    <circle cx="1111" cy="284" r="1.0" fill="#7A4A21" opacity="0.10"/><circle cx="15" cy="382" r="2.4" fill="#7A4A21" opacity="0.05"/><circle cx="1330" cy="469" r="0.9" fill="#7A4A21" opacity="0.07"/><circle cx="1688" cy="344" r="2.1" fill="#7A4A21" opacity="0.05"/><circle cx="571" cy="84" r="1.7" fill="#7A4A21" opacity="0.10"/><circle cx="1417" cy="588" r="1.5" fill="#7A4A21" opacity="0.09"/><circle cx="244" cy="221" r="2.0" fill="#7A4A21" opacity="0.09"/><circle cx="1012" cy="67" r="1.3" fill="#7A4A21" opacity="0.05"/><circle cx="675" cy="615" r="1.2" fill="#7A4A21" opacity="0.10"/><circle cx="2110" cy="42" r="1.5" fill="#7A4A21" opacity="0.07"/><circle cx="56" cy="323" r="2.4" fill="#7A4A21" opacity="0.05"/><circle cx="1432" cy="92" r="1.8" fill="#7A4A21" opacity="0.10"/><circle cx="487" cy="6" r="1.0" fill="#7A4A21" opacity="0.08"/><circle cx="42" cy="64" r="1.7" fill="#7A4A21" opacity="0.10"/><circle cx="1008" cy="303" r="1.9" fill="#7A4A21" opacity="0.05"/><circle cx="1392" cy="131" r="1.9" fill="#7A4A21" opacity="0.11"/><circle cx="130" cy="422" r="1.9" fill="#7A4A21" opacity="0.05"/><circle cx="644" cy="756" r="2.6" fill="#7A4A21" opacity="0.05"/><circle cx="1693" cy="723" r="1.2" fill="#7A4A21" opacity="0.08"/><circle cx="103" cy="278" r="2.0" fill="#7A4A21" opacity="0.08"/><circle cx="1859" cy="66" r="1.4" fill="#7A4A21" opacity="0.10"/><circle cx="1402" cy="343" r="1.5" fill="#7A4A21" opacity="0.11"/><circle cx="1379" cy="14" r="2.2" fill="#7A4A21" opacity="0.06"/><circle cx="1041" cy="162" r="1.6" fill="#7A4A21" opacity="0.06"/><circle cx="213" cy="478" r="1.0" fill="#7A4A21" opacity="0.09"/><circle cx="61" cy="593" r="2.3" fill="#7A4A21" opacity="0.07"/><circle cx="1703" cy="189" r="2.1" fill="#7A4A21" opacity="0.07"/><circle cx="554" cy="733" r="1.5" fill="#7A4A21" opacity="0.07"/><circle cx="2064" cy="281" r="2.0" fill="#7A4A21" opacity="0.05"/><circle cx="2024" cy="197" r="0.9" fill="#7A4A21" opacity="0.11"/><circle cx="415" cy="719" r="2.6" fill="#7A4A21" opacity="0.08"/><circle cx="28" cy="46" r="1.2" fill="#7A4A21" opacity="0.07"/><circle cx="1468" cy="734" r="1.4" fill="#7A4A21" opacity="0.05"/><circle cx="1349" cy="104" r="1.0" fill="#7A4A21" opacity="0.08"/><circle cx="1670" cy="50" r="1.6" fill="#7A4A21" opacity="0.09"/><circle cx="1834" cy="291" r="2.4" fill="#7A4A21" opacity="0.05"/><circle cx="1717" cy="586" r="2.4" fill="#7A4A21" opacity="0.07"/><circle cx="238" cy="37" r="1.8" fill="#7A4A21" opacity="0.05"/><circle cx="1511" cy="64" r="2.2" fill="#7A4A21" opacity="0.06"/><circle cx="31" cy="134" r="1.6" fill="#7A4A21" opacity="0.08"/><circle cx="932" cy="132" r="1.7" fill="#7A4A21" opacity="0.11"/><circle cx="1285" cy="715" r="0.9" fill="#7A4A21" opacity="0.11"/><circle cx="2134" cy="414" r="1.7" fill="#7A4A21" opacity="0.08"/><circle cx="2183" cy="50" r="2.0" fill="#7A4A21" opacity="0.08"/><circle cx="721" cy="551" r="2.1" fill="#7A4A21" opacity="0.05"/><circle cx="1679" cy="345" r="1.7" fill="#7A4A21" opacity="0.08"/><circle cx="127" cy="458" r="1.5" fill="#7A4A21" opacity="0.10"/><circle cx="555" cy="626" r="2.1" fill="#7A4A21" opacity="0.08"/><circle cx="2102" cy="27" r="1.9" fill="#7A4A21" opacity="0.08"/><circle cx="1627" cy="309" r="0.9" fill="#7A4A21" opacity="0.05"/><circle cx="1459" cy="138" r="0.9" fill="#7A4A21" opacity="0.06"/><circle cx="1129" cy="407" r="0.8" fill="#7A4A21" opacity="0.09"/><circle cx="801" cy="595" r="0.8" fill="#7A4A21" opacity="0.11"/><circle cx="1417" cy="742" r="2.6" fill="#7A4A21" opacity="0.10"/><circle cx="255" cy="265" r="1.2" fill="#7A4A21" opacity="0.09"/><circle cx="461" cy="168" r="1.0" fill="#7A4A21" opacity="0.05"/><circle cx="2252" cy="742" r="1.5" fill="#7A4A21" opacity="0.09"/><circle cx="1122" cy="397" r="1.5" fill="#7A4A21" opacity="0.08"/><circle cx="567" cy="195" r="1.7" fill="#7A4A21" opacity="0.05"/><circle cx="1054" cy="717" r="0.8" fill="#7A4A21" opacity="0.05"/><circle cx="1920" cy="44" r="1.3" fill="#7A4A21" opacity="0.10"/><circle cx="1453" cy="168" r="0.9" fill="#7A4A21" opacity="0.06"/><circle cx="720" cy="608" r="2.6" fill="#7A4A21" opacity="0.10"/><circle cx="2164" cy="707" r="2.4" fill="#7A4A21" opacity="0.10"/><circle cx="2322" cy="72" r="1.4" fill="#7A4A21" opacity="0.06"/><circle cx="1450" cy="374" r="1.4" fill="#7A4A21" opacity="0.10"/><circle cx="958" cy="159" r="1.3" fill="#7A4A21" opacity="0.07"/><circle cx="1465" cy="432" r="1.6" fill="#7A4A21" opacity="0.05"/><circle cx="965" cy="247" r="1.1" fill="#7A4A21" opacity="0.08"/><circle cx="453" cy="541" r="2.0" fill="#7A4A21" opacity="0.05"/><circle cx="1501" cy="257" r="1.6" fill="#7A4A21" opacity="0.08"/><circle cx="1828" cy="672" r="2.1" fill="#7A4A21" opacity="0.05"/><circle cx="1301" cy="255" r="0.8" fill="#7A4A21" opacity="0.08"/><circle cx="1129" cy="659" r="1.4" fill="#7A4A21" opacity="0.10"/><circle cx="1234" cy="75" r="2.1" fill="#7A4A21" opacity="0.06"/><circle cx="1280" cy="54" r="0.8" fill="#7A4A21" opacity="0.10"/><circle cx="101" cy="113" r="1.1" fill="#7A4A21" opacity="0.05"/><circle cx="1978" cy="756" r="2.0" fill="#7A4A21" opacity="0.07"/><circle cx="2132" cy="385" r="1.0" fill="#7A4A21" opacity="0.09"/><circle cx="862" cy="205" r="1.4" fill="#7A4A21" opacity="0.07"/><circle cx="438" cy="466" r="2.4" fill="#7A4A21" opacity="0.08"/><circle cx="23" cy="520" r="0.8" fill="#7A4A21" opacity="0.07"/><circle cx="2078" cy="515" r="2.4" fill="#7A4A21" opacity="0.09"/><circle cx="655" cy="109" r="1.6" fill="#7A4A21" opacity="0.09"/><circle cx="557" cy="252" r="2.1" fill="#7A4A21" opacity="0.06"/><circle cx="1442" cy="415" r="2.5" fill="#7A4A21" opacity="0.04"/><circle cx="447" cy="592" r="2.0" fill="#7A4A21" opacity="0.05"/><circle cx="323" cy="160" r="1.8" fill="#7A4A21" opacity="0.10"/><circle cx="520" cy="154" r="2.0" fill="#7A4A21" opacity="0.07"/><circle cx="2032" cy="759" r="2.5" fill="#7A4A21" opacity="0.09"/><circle cx="1191" cy="46" r="2.3" fill="#7A4A21" opacity="0.07"/><circle cx="1113" cy="480" r="2.5" fill="#7A4A21" opacity="0.08"/><circle cx="2203" cy="733" r="1.0" fill="#7A4A21" opacity="0.06"/><circle cx="2132" cy="583" r="2.5" fill="#7A4A21" opacity="0.05"/><circle cx="1275" cy="709" r="1.8" fill="#7A4A21" opacity="0.09"/><circle cx="2340" cy="132" r="0.9" fill="#7A4A21" opacity="0.10"/><circle cx="1395" cy="152" r="2.3" fill="#7A4A21" opacity="0.06"/><circle cx="311" cy="226" r="0.9" fill="#7A4A21" opacity="0.07"/><circle cx="1871" cy="345" r="2.5" fill="#7A4A21" opacity="0.04"/><circle cx="415" cy="109" r="1.8" fill="#7A4A21" opacity="0.05"/><circle cx="1601" cy="398" r="1.8" fill="#7A4A21" opacity="0.10"/><circle cx="1896" cy="701" r="1.1" fill="#7A4A21" opacity="0.07"/><circle cx="2305" cy="302" r="1.3" fill="#7A4A21" opacity="0.07"/><circle cx="434" cy="645" r="1.9" fill="#7A4A21" opacity="0.05"/><circle cx="2314" cy="396" r="1.3" fill="#7A4A21" opacity="0.08"/><circle cx="2279" cy="264" r="0.8" fill="#7A4A21" opacity="0.05"/><circle cx="141" cy="402" r="1.4" fill="#7A4A21" opacity="0.10"/><circle cx="495" cy="11" r="1.6" fill="#7A4A21" opacity="0.05"/><circle cx="745" cy="171" r="1.1" fill="#7A4A21" opacity="0.08"/><circle cx="2247" cy="281" r="1.9" fill="#7A4A21" opacity="0.06"/><circle cx="2196" cy="420" r="0.9" fill="#7A4A21" opacity="0.09"/><circle cx="504" cy="36" r="0.8" fill="#7A4A21" opacity="0.10"/><circle cx="1704" cy="272" r="1.8" fill="#7A4A21" opacity="0.09"/><circle cx="181" cy="536" r="2.1" fill="#7A4A21" opacity="0.11"/><circle cx="142" cy="435" r="1.7" fill="#7A4A21" opacity="0.10"/><circle cx="874" cy="503" r="2.4" fill="#7A4A21" opacity="0.06"/><circle cx="1237" cy="679" r="0.9" fill="#7A4A21" opacity="0.11"/><circle cx="751" cy="348" r="1.3" fill="#7A4A21" opacity="0.10"/><circle cx="1278" cy="568" r="1.0" fill="#7A4A21" opacity="0.10"/><circle cx="1970" cy="517" r="1.2" fill="#7A4A21" opacity="0.06"/><circle cx="1085" cy="49" r="2.5" fill="#7A4A21" opacity="0.07"/><circle cx="2288" cy="139" r="2.0" fill="#7A4A21" opacity="0.10"/><circle cx="1547" cy="322" r="0.8" fill="#7A4A21" opacity="0.07"/><circle cx="936" cy="718" r="2.6" fill="#7A4A21" opacity="0.11"/><circle cx="2352" cy="128" r="0.9" fill="#7A4A21" opacity="0.06"/><circle cx="19" cy="90" r="1.8" fill="#7A4A21" opacity="0.05"/><circle cx="1466" cy="289" r="1.3" fill="#7A4A21" opacity="0.11"/><circle cx="447" cy="671" r="1.7" fill="#7A4A21" opacity="0.09"/><circle cx="346" cy="566" r="2.4" fill="#7A4A21" opacity="0.05"/><circle cx="1135" cy="497" r="1.7" fill="#7A4A21" opacity="0.09"/><circle cx="1546" cy="239" r="2.0" fill="#7A4A21" opacity="0.09"/><circle cx="1112" cy="449" r="1.9" fill="#7A4A21" opacity="0.07"/><circle cx="213" cy="310" r="2.2" fill="#7A4A21" opacity="0.09"/><circle cx="178" cy="363" r="1.9" fill="#7A4A21" opacity="0.08"/><circle cx="359" cy="491" r="2.1" fill="#7A4A21" opacity="0.08"/><circle cx="2255" cy="439" r="0.8" fill="#7A4A21" opacity="0.06"/><circle cx="1685" cy="61" r="2.5" fill="#7A4A21" opacity="0.09"/><circle cx="1836" cy="129" r="0.8" fill="#7A4A21" opacity="0.10"/><circle cx="1226" cy="336" r="1.7" fill="#7A4A21" opacity="0.09"/><circle cx="894" cy="587" r="1.1" fill="#7A4A21" opacity="0.11"/><circle cx="1670" cy="242" r="1.7" fill="#7A4A21" opacity="0.10"/><circle cx="781" cy="531" r="2.4" fill="#7A4A21" opacity="0.11"/><circle cx="614" cy="604" r="1.9" fill="#7A4A21" opacity="0.10"/><circle cx="167" cy="314" r="1.6" fill="#7A4A21" opacity="0.10"/><circle cx="1085" cy="32" r="1.2" fill="#7A4A21" opacity="0.10"/><circle cx="2119" cy="436" r="0.9" fill="#7A4A21" opacity="0.09"/><circle cx="2079" cy="218" r="1.7" fill="#7A4A21" opacity="0.06"/><circle cx="128" cy="558" r="1.1" fill="#7A4A21" opacity="0.05"/><circle cx="2183" cy="73" r="2.2" fill="#7A4A21" opacity="0.10"/><circle cx="602" cy="283" r="1.2" fill="#7A4A21" opacity="0.09"/><circle cx="2337" cy="565" r="1.7" fill="#7A4A21" opacity="0.08"/><circle cx="979" cy="543" r="1.3" fill="#7A4A21" opacity="0.06"/><circle cx="1671" cy="194" r="2.6" fill="#7A4A21" opacity="0.09"/><circle cx="441" cy="16" r="1.9" fill="#7A4A21" opacity="0.05"/><circle cx="1200" cy="456" r="2.3" fill="#7A4A21" opacity="0.07"/><circle cx="1310" cy="619" r="1.0" fill="#7A4A21" opacity="0.06"/><circle cx="1941" cy="272" r="2.5" fill="#7A4A21" opacity="0.05"/><circle cx="204" cy="276" r="1.6" fill="#7A4A21" opacity="0.07"/><circle cx="529" cy="340" r="2.4" fill="#7A4A21" opacity="0.11"/><circle cx="1503" cy="195" r="1.8" fill="#7A4A21" opacity="0.05"/><circle cx="151" cy="604" r="1.3" fill="#7A4A21" opacity="0.05"/><circle cx="1968" cy="93" r="1.2" fill="#7A4A21" opacity="0.05"/><circle cx="2142" cy="518" r="1.1" fill="#7A4A21" opacity="0.05"/><circle cx="2177" cy="98" r="2.1" fill="#7A4A21" opacity="0.09"/><circle cx="1412" cy="364" r="1.5" fill="#7A4A21" opacity="0.06"/><circle cx="1552" cy="115" r="1.7" fill="#7A4A21" opacity="0.06"/><circle cx="883" cy="677" r="1.8" fill="#7A4A21" opacity="0.09"/><circle cx="1554" cy="1" r="2.2" fill="#7A4A21" opacity="0.10"/><circle cx="1791" cy="397" r="2.3" fill="#7A4A21" opacity="0.11"/><circle cx="664" cy="125" r="1.4" fill="#7A4A21" opacity="0.04"/><circle cx="564" cy="63" r="0.8" fill="#7A4A21" opacity="0.07"/><circle cx="15" cy="365" r="2.3" fill="#7A4A21" opacity="0.09"/><circle cx="125" cy="553" r="1.1" fill="#7A4A21" opacity="0.10"/><circle cx="1545" cy="414" r="1.6" fill="#7A4A21" opacity="0.11"/><circle cx="504" cy="683" r="1.2" fill="#7A4A21" opacity="0.05"/><circle cx="518" cy="28" r="2.3" fill="#7A4A21" opacity="0.05"/><circle cx="1376" cy="209" r="1.4" fill="#7A4A21" opacity="0.10"/><circle cx="1318" cy="203" r="2.1" fill="#7A4A21" opacity="0.05"/><circle cx="98" cy="528" r="2.3" fill="#7A4A21" opacity="0.09"/><circle cx="1673" cy="707" r="2.5" fill="#7A4A21" opacity="0.08"/><circle cx="425" cy="440" r="1.6" fill="#7A4A21" opacity="0.09"/><circle cx="837" cy="55" r="1.1" fill="#7A4A21" opacity="0.05"/><circle cx="1758" cy="523" r="1.8" fill="#7A4A21" opacity="0.06"/><circle cx="1749" cy="340" r="1.7" fill="#7A4A21" opacity="0.05"/><circle cx="2393" cy="336" r="1.6" fill="#7A4A21" opacity="0.05"/><circle cx="1075" cy="358" r="1.6" fill="#7A4A21" opacity="0.09"/><circle cx="804" cy="473" r="2.0" fill="#7A4A21" opacity="0.05"/><circle cx="1975" cy="53" r="1.3" fill="#7A4A21" opacity="0.10"/><circle cx="286" cy="210" r="1.5" fill="#7A4A21" opacity="0.11"/><circle cx="2325" cy="166" r="2.0" fill="#7A4A21" opacity="0.10"/><circle cx="1234" cy="239" r="1.1" fill="#7A4A21" opacity="0.04"/><circle cx="107" cy="36" r="2.1" fill="#7A4A21" opacity="0.08"/><circle cx="161" cy="712" r="2.6" fill="#7A4A21" opacity="0.07"/><circle cx="869" cy="665" r="2.0" fill="#7A4A21" opacity="0.09"/><circle cx="438" cy="554" r="1.6" fill="#7A4A21" opacity="0.04"/><circle cx="115" cy="201" r="1.2" fill="#7A4A21" opacity="0.06"/><circle cx="2188" cy="302" r="1.2" fill="#7A4A21" opacity="0.05"/><circle cx="134" cy="308" r="1.6" fill="#7A4A21" opacity="0.05"/><circle cx="1240" cy="262" r="0.8" fill="#7A4A21" opacity="0.07"/><circle cx="378" cy="137" r="2.2" fill="#7A4A21" opacity="0.07"/><circle cx="857" cy="422" r="2.1" fill="#7A4A21" opacity="0.08"/><circle cx="2279" cy="544" r="1.4" fill="#7A4A21" opacity="0.11"/><circle cx="38" cy="143" r="1.0" fill="#7A4A21" opacity="0.07"/><circle cx="849" cy="296" r="1.9" fill="#7A4A21" opacity="0.06"/><circle cx="1159" cy="515" r="2.5" fill="#7A4A21" opacity="0.11"/><circle cx="884" cy="293" r="2.6" fill="#7A4A21" opacity="0.10"/><circle cx="2106" cy="87" r="1.3" fill="#7A4A21" opacity="0.07"/><circle cx="742" cy="352" r="2.5" fill="#7A4A21" opacity="0.07"/><circle cx="1214" cy="246" r="1.9" fill="#7A4A21" opacity="0.08"/><circle cx="436" cy="45" r="2.2" fill="#7A4A21" opacity="0.10"/><circle cx="812" cy="152" r="1.0" fill="#7A4A21" opacity="0.08"/><circle cx="1389" cy="711" r="2.0" fill="#7A4A21" opacity="0.08"/><circle cx="1426" cy="691" r="2.5" fill="#7A4A21" opacity="0.05"/><circle cx="293" cy="97" r="0.8" fill="#7A4A21" opacity="0.10"/><circle cx="2312" cy="381" r="2.2" fill="#7A4A21" opacity="0.09"/><circle cx="1575" cy="298" r="2.5" fill="#7A4A21" opacity="0.06"/><circle cx="240" cy="40" r="2.2" fill="#7A4A21" opacity="0.09"/><circle cx="2047" cy="608" r="1.2" fill="#7A4A21" opacity="0.07"/><circle cx="673" cy="657" r="0.8" fill="#7A4A21" opacity="0.06"/><circle cx="1568" cy="484" r="0.8" fill="#7A4A21" opacity="0.05"/>
    <rect x="26" y="26" width="2348" height="708" fill="none" stroke="#B8860B" stroke-width="3"/>
    <rect x="38" y="38" width="2324" height="684" fill="none" stroke="#B8860B" stroke-width="1.4" opacity="0.8"/>

    <g transform="translate(1152,54)">
    <g transform="scale(0.48)">
      <!-- egg -->
      <path d="M100,8 C140,8 166,64 166,118 C166,168 138,198 100,198 C62,198 34,168 34,118 C34,64 60,8 100,8 Z"
            fill="none" stroke="#1E4023" stroke-width="9"/>
      <path d="M100,30 C130,30 150,74 150,116 C150,156 128,180 100,180 C72,180 50,156 50,116 C50,74 70,30 100,30 Z"
            fill="#1E4023"/>
      <path d="M78,60 C70,80 66,100 68,120" stroke="#F6EDDA" stroke-width="7" fill="none" stroke-linecap="round" opacity="0.85"/>
      <!-- leaves at base -->
      <path d="M100,196 C64,210 34,206 18,182 C48,172 82,176 100,196 Z" fill="#1E4023" stroke="#B8860B" stroke-width="3"/>
      <path d="M100,196 C136,210 166,206 182,182 C152,172 118,176 100,196 Z" fill="#1E4023" stroke="#B8860B" stroke-width="3"/>
      <path d="M100,244 C84,224 84,206 100,190 C116,206 116,224 100,244 Z" fill="#1E4023" stroke="#B8860B" stroke-width="3"/>
      <path d="M100,238 L100,196 M100,214 L88,204 M100,214 L112,204" stroke="#B8860B" stroke-width="2.5" fill="none"/>
    </g></g>
    <text x="1200" y="286" font-family="Baskerville, Georgia, serif" font-weight="700" font-size="92" fill="#1E4023" text-anchor="middle">EggShell<tspan font-size="38" dy="-42">®</tspan></text>
    <text x="1195" y="348" font-family="'Avenir Next', 'Helvetica Neue', sans-serif" font-weight="600" font-size="36" letter-spacing="10" fill="#B8860B" text-anchor="middle">ORGANIC</text>
    <path d="M820,392 L1050,392 M1350,392 L1580,392" stroke="#B8860B" stroke-width="2.2"/>
    <path d="M1200,380 l9,12 l-9,12 l-9,-12 Z" fill="#B8860B"/>
    <text x="1200" y="446" font-family="Baskerville, Georgia, serif" font-style="italic" font-size="38" fill="#7A4A21" text-anchor="middle">Daily Protein, The Natural Way.</text>
    
    <g>
      <circle cx="660" cy="552" r="74" fill="none" stroke="#1E4023" stroke-width="5"/>
      <circle cx="660" cy="552" r="64" fill="none" stroke="#B8860B" stroke-width="1.6" opacity="0.8"/>
      <path d="M660,582 C626,562 624,526 650,512 C668,538 670,564 660,582 Z" fill="#1E4023"/><path d="M660,586 C662,558 658,534 652,518" stroke="#F6EDDA" stroke-width="2.5" fill="none"/>
      <text x="660" y="670" font-family="'Avenir Next', 'Helvetica Neue', sans-serif" font-weight="600" font-size="27" fill="#1E4023" text-anchor="middle">Organic</text>
      <text x="660" y="702" font-family="'Avenir Next', 'Helvetica Neue', sans-serif" font-weight="600" font-size="27" fill="#1E4023" text-anchor="middle">Farming</text>
    </g>
    <g>
      <circle cx="1020" cy="552" r="74" fill="none" stroke="#1E4023" stroke-width="5"/>
      <circle cx="1020" cy="552" r="64" fill="none" stroke="#B8860B" stroke-width="1.6" opacity="0.8"/>
      <g transform="translate(987,516) scale(0.155)">
  <g stroke="#16341C" stroke-linejoin="round" stroke-linecap="round">
    <!-- tail plumes -->
    <path d="M120,180 C50,90 40,60 70,28 C96,72 116,110 148,150 Z" fill="#1E4023" stroke-width="4"/>
    <path d="M132,196 C60,140 34,104 44,62 C84,102 122,140 158,168 Z" fill="#1E4023" stroke-width="4"/>
    <path d="M146,210 C74,178 46,150 44,110 C94,142 136,168 172,188 Z" fill="#1E4023" stroke-width="4"/>
    <!-- body -->
    <path d="M118,240 C118,170 180,128 258,128 C302,128 330,116 344,92
             C356,102 356,118 348,130 C368,128 382,136 388,152
             C376,158 366,160 356,162 C388,196 400,238 388,282
             C374,332 322,368 258,368 C182,368 118,318 118,240 Z"
          fill="#1E4023" stroke-width="5"/>
    <!-- comb -->
    <g transform="translate(8,12)">
      <path d="M304,88 C300,66 308,52 322,44 C324,58 332,64 340,60 C338,74 348,80 358,76 C352,92 344,98 332,100 Z"
            fill="#8C3B2E" stroke="#6E2C22" stroke-width="3"/>
    </g>
    <!-- wattle -->
    <path d="M352,142 C362,152 364,166 356,176 C346,170 342,156 346,144 Z" fill="#8C3B2E" stroke="#6E2C22" stroke-width="3"/>
    <!-- beak -->
    <path d="M382,140 L412,150 L384,162 Z" fill="#D4A93C" stroke="#7A4A21" stroke-width="3"/>
    <!-- eye -->
    <circle cx="344" cy="118" r="7" fill="#F6EDDA"/>
    <circle cx="346" cy="118" r="3.4" fill="#16341C"/>
    <!-- wing -->
    <path d="M170,220 C176,182 214,160 262,164 C288,166 302,182 300,204 C298,238 258,266 210,264 C182,262 166,246 170,220 Z"
          fill="none" stroke="#F6EDDA" stroke-width="4.5" opacity="0.9"/>
    <path d="M188,236 C210,244 246,242 272,224 M182,214 C206,224 244,222 276,202" stroke="#F6EDDA" stroke-width="3" fill="none" opacity="0.75"/>
    <!-- breast feather ticks -->
    <path d="M300,250 q10,10 4,22 M318,222 q10,10 4,22 M292,286 q10,10 4,22 M328,258 q8,10 3,20" stroke="#F6EDDA" stroke-width="3" fill="none" opacity="0.6"/>
    <!-- legs -->
    <path d="M218,366 L214,430 M214,430 L192,452 M214,430 L216,456 M214,430 L234,450" stroke="#7A4A21" stroke-width="7" fill="none"/>
    <path d="M282,362 L286,430 M286,430 L264,452 M286,430 L288,456 M286,430 L306,450" stroke="#7A4A21" stroke-width="7" fill="none"/>
  </g></g>
      <text x="1020" y="670" font-family="'Avenir Next', 'Helvetica Neue', sans-serif" font-weight="600" font-size="27" fill="#1E4023" text-anchor="middle">Free Range</text>
      <text x="1020" y="702" font-family="'Avenir Next', 'Helvetica Neue', sans-serif" font-weight="600" font-size="27" fill="#1E4023" text-anchor="middle">Hens</text>
    </g>
    <g>
      <circle cx="1380" cy="552" r="74" fill="none" stroke="#1E4023" stroke-width="5"/>
      <circle cx="1380" cy="552" r="64" fill="none" stroke="#B8860B" stroke-width="1.6" opacity="0.8"/>
      <g stroke="#1E4023" stroke-width="5" fill="none"><path d="M1370,514 L1370,544 L1350,582 C1346,592 1352,596 1360,596 L1400,596 C1408,596 1414,592 1410,582 L1390,544 L1390,514"/><path d="M1364,514 L1396,514"/><path d="M1362,570 L1398,570" stroke-width="4"/><circle cx="1376" cy="582" r="3.4" fill="#1E4023"/><circle cx="1389" cy="585" r="2.6" fill="#1E4023"/></g>
      <text x="1380" y="670" font-family="'Avenir Next', 'Helvetica Neue', sans-serif" font-weight="600" font-size="27" fill="#1E4023" text-anchor="middle">No Antibiotics</text>
      <text x="1380" y="702" font-family="'Avenir Next', 'Helvetica Neue', sans-serif" font-weight="600" font-size="27" fill="#1E4023" text-anchor="middle">No Hormones</text>
    </g>
    <g>
      <circle cx="1740" cy="552" r="74" fill="none" stroke="#1E4023" stroke-width="5"/>
      <circle cx="1740" cy="552" r="64" fill="none" stroke="#B8860B" stroke-width="1.6" opacity="0.8"/>
      <g stroke="#1E4023" stroke-width="4.5" fill="none"><circle cx="1740" cy="552" r="36"/><path d="M1704,552 L1776,552 M1740,516 C1760,532 1760,572 1740,588 M1740,516 C1720,532 1720,572 1740,588"/></g>
      <text x="1740" y="670" font-family="'Avenir Next', 'Helvetica Neue', sans-serif" font-weight="600" font-size="27" fill="#1E4023" text-anchor="middle">Sustainable</text>
      <text x="1740" y="702" font-family="'Avenir Next', 'Helvetica Neue', sans-serif" font-weight="600" font-size="27" fill="#1E4023" text-anchor="middle">Practices</text>
    </g>
  </g>
<defs>
    <linearGradient id="aoV" x1="0" y1="0" x2="0" y2="1">
      <stop offset="0" stop-color="#2E2008" stop-opacity="0.16"/><stop offset="1" stop-color="#2E2008" stop-opacity="0"/>
    </linearGradient>
    <linearGradient id="aoH" x1="0" y1="0" x2="1" y2="0">
      <stop offset="0" stop-color="#2E2008" stop-opacity="0.16"/><stop offset="1" stop-color="#2E2008" stop-opacity="0"/>
    </linearGradient>
    <linearGradient id="aoVb" x1="0" y1="1" x2="0" y2="0">
      <stop offset="0" stop-color="#2E2008" stop-opacity="0.16"/><stop offset="1" stop-color="#2E2008" stop-opacity="0"/>
    </linearGradient>
    <linearGradient id="aoHr" x1="1" y1="0" x2="0" y2="0">
      <stop offset="0" stop-color="#2E2008" stop-opacity="0.16"/><stop offset="1" stop-color="#2E2008" stop-opacity="0"/>
    </linearGradient>
    <linearGradient id="sheenV" x1="0" y1="0" x2="0" y2="1">
      <stop offset="0" stop-color="#FFF6E0" stop-opacity="0.10"/><stop offset="0.3" stop-color="#FFF6E0" stop-opacity="0"/>
    </linearGradient>
  </defs>
  <rect width="2400" height="41" fill="url(#aoV)"/>
  <rect y="719" width="2400" height="41" fill="url(#aoVb)"/>
  <rect width="41" height="760" fill="url(#aoH)"/>
  <rect x="2359" width="41" height="760" fill="url(#aoHr)"/>
  <rect width="2400" height="760" fill="url(#sheenV)"/>
</svg>