<svg xmlns="http://www.w3.org/2000/svg" width="2400" height="760" viewBox="0 0 2400 760">
  <defs>
    <linearGradient id="kraftg" x1="0" y1="0" x2="0" y2="1">
      <stop offset="0" stop-color="#E2C79C"/><stop offset="0.55" stop-color="#D9BC8F"/><stop offset="1" stop-color="#C9A876"/>
    </linearGradient>
  </defs>

  <g>
    <rect width="2400" height="760" fill="url(#kraftg)"/>
    <circle cx="2220" cy="721" r="2.4" fill="#7A4A21" opacity="0.05"/><circle cx="1421" cy="322" r="1.8" fill="#7A4A21" opacity="0.05"/><circle cx="461" cy="338" r="1.2" fill="#7A4A21" opacity="0.07"/><circle cx="59" cy="65" r="2.1" fill="#7A4A21" opacity="0.07"/><circle cx="1230" cy="558" r="1.4" fill="#7A4A21" opacity="0.04"/><circle cx="1879" cy="448" r="2.0" fill="#7A4A21" opacity="0.08"/><circle cx="2330" cy="276" r="2.2" fill="#7A4A21" opacity="0.07"/><circle cx="1373" cy="502" r="1.4" fill="#7A4A21" opacity="0.05"/><circle cx="1138" cy="546" r="1.9" fill="#7A4A21" opacity="0.07"/><circle cx="1542" cy="138" r="1.1" fill="#7A4A21" opacity="0.06"/><circle cx="1958" cy="149" r="1.0" fill="#7A4A21" opacity="0.05"/><circle cx="93" cy="209" r="1.8" fill="#7A4A21" opacity="0.10"/><circle cx="794" cy="281" r="1.3" fill="#7A4A21" opacity="0.06"/><circle cx="1866" cy="417" r="1.3" fill="#7A4A21" opacity="0.05"/><circle cx="1881" cy="537" r="2.3" fill="#7A4A21" opacity="0.06"/><circle cx="1309" cy="698" r="1.9" fill="#7A4A21" opacity="0.11"/><circle cx="401" cy="741" r="0.9" fill="#7A4A21" opacity="0.07"/><circle cx="56" cy="615" r="2.0" fill="#7A4A21" opacity="0.11"/><circle cx="1932" cy="721" r="1.8" fill="#7A4A21" opacity="0.11"/><circle cx="1798" cy="263" r="2.6" fill="#7A4A21" opacity="0.07"/><circle cx="464" cy="58" r="1.6" fill="#7A4A21" opacity="0.05"/><circle cx="2241" cy="722" r="1.2" fill="#7A4A21" opacity="0.05"/><circle cx="1270" cy="129" r="1.8" fill="#7A4A21" opacity="0.10"/><circle cx="607" cy="321" r="2.4" fill="#7A4A21" opacity="0.07"/><circle cx="823" cy="678" r="2.3" fill="#7A4A21" opacity="0.10"/><circle cx="1651" cy="314" r="2.0" fill="#7A4A21" opacity="0.10"/><circle cx="1535" cy="181" r="1.3" fill="#7A4A21" opacity="0.07"/><circle cx="1852" cy="423" r="1.8" fill="#7A4A21" opacity="0.10"/><circle cx="260" cy="480" r="1.4" fill="#7A4A21" opacity="0.08"/><circle cx="2005" cy="189" r="2.5" fill="#7A4A21" opacity="0.05"/><circle cx="1349" cy="412" r="1.2" fill="#7A4A21" opacity="0.08"/><circle cx="1130" cy="342" r="2.1" fill="#7A4A21" opacity="0.04"/><circle cx="905" cy="597" r="1.1" fill="#7A4A21" opacity="0.10"/><circle cx="489" cy="518" r="1.1" fill="#7A4A21" opacity="0.07"/><circle cx="1014" cy="62" r="2.1" fill="#7A4A21" opacity="0.07"/><circle cx="1654" cy="410" r="1.8" fill="#7A4A21" opacity="0.08"/><circle cx="715" cy="683" r="1.0" fill="#7A4A21" opacity="0.10"/><circle cx="2072" cy="378" r="2.2" fill="#7A4A21" opacity="0.09"/><circle cx="1452" cy="222" r="1.4" fill="#7A4A21" opacity="0.06"/><circle cx="725" cy="729" r="1.4" fill="#7A4A21" opacity="0.07"/><circle cx="1007" cy="621" r="1.7" fill="#7A4A21" opacity="0.08"/><circle cx="613" cy="211" r="1.0" fill="#7A4A21" opacity="0.06"/><circle cx="633" cy="648" r="1.7" fill="#7A4A21" opacity="0.05"/><circle cx="1111" cy="92" r="1.8" fill="#7A4A21" opacity="0.07"/><circle cx="2060" cy="197" r="2.3" fill="#7A4A21" opacity="0.06"/><circle cx="2358" cy="482" r="0.9" fill="#7A4A21" opacity="0.10"/><circle cx="662" cy="275" r="1.1" fill="#7A4A21" opacity="0.10"/><circle cx="217" cy="561" r="1.5" fill="#7A4A21" opacity="0.09"/><circle cx="703" cy="59" r="2.4" fill="#7A4A21" opacity="0.09"/><circle cx="407" cy="742" r="2.4" fill="#7A4A21" opacity="0.05"/><circle cx="46" cy="464" r="1.1" fill="#7A4A21" opacity="0.09"/><circle cx="1125" cy="539" r="1.8" fill="#7A4A21" opacity="0.09"/><circle cx="1972" cy="458" r="1.9" fill="#7A4A21" opacity="0.06"/><circle cx="322" cy="70" r="2.3" fill="#7A4A21" opacity="0.05"/><circle cx="1024" cy="241" r="1.9" fill="#7A4A21" opacity="0.08"/><circle cx="2062" cy="331" r="1.5" fill="#7A4A21" opacity="0.09"/><circle cx="1788" cy="703" r="1.4" fill="#7A4A21" opacity="0.10"/><circle cx="2355" cy="747" r="1.0" fill="#7A4A21" opacity="0.07"/><circle cx="1858" cy="632" r="0.9" fill="#7A4A21" opacity="0.07"/><circle cx="1738" cy="576" r="1.8" fill="#7A4A21" opacity="0.05"/><circle cx="976" cy="44" r="1.4" fill="#7A4A21" opacity="0.07"/><circle cx="1975" cy="448" r="1.5" fill="#7A4A21" opacity="0.06"/><circle cx="757" cy="510" r="1.6" fill="#7A4A21" opacity="0.05"/><circle cx="1972" cy="437" r="2.5" fill="#7A4A21" opacity="0.08"/><circle cx="1495" cy="325" r="1.9" fill="#7A4A21" opacity="0.10"/><circle cx="2355" cy="502" r="1.6" fill="#7A4A21" opacity="0.04"/><circle cx="2016" cy="297" r="1.5" fill="#7A4A21" opacity="0.04"/><circle cx="82" cy="297" r="2.6" fill="#7A4A21" opacity="0.09"/><circle cx="1701" cy="508" r="1.3" fill="#7A4A21" opacity="0.05"/><circle cx="1446" cy="48" r="1.9" fill="#7A4A21" opacity="0.08"/><circle cx="1302" cy="92" r="0.9" fill="#7A4A21" opacity="0.07"/><circle cx="349" cy="488" r="1.4" fill="#7A4A21" opacity="0.08"/><circle cx="1801" cy="461" r="1.8" fill="#7A4A21" opacity="0.05"/><circle cx="833" cy="743" r="1.3" fill="#7A4A21" opacity="0.06"/><circle cx="1184" cy="415" r="2.2" fill="#7A4A21" opacity="0.06"/><circle cx="2311" cy="17" r="2.2" fill="#7A4A21" opacity="0.08"/><circle cx="2163" cy="116" r="2.0" fill="#7A4A21" opacity="0.11"/><circle cx="1601" cy="85" r="2.5" fill="#7A4A21" opacity="0.11"/><circle cx="266" cy="629" r="0.9" fill="#7A4A21" opacity="0.05"/><circle cx="1909" cy="547" r="2.5" fill="#7A4A21" opacity="0.08"/><circle cx="1228" cy="207" r="1.8" fill="#7A4A21" opacity="0.11"/><circle cx="1552" cy="665" r="1.2" fill="#7A4A21" opacity="0.09"/><circle cx="1756" cy="54" r="2.3" fill="#7A4A21" opacity="0.05"/><circle cx="522" cy="47" r="2.0" fill="#7A4A21" opacity="0.05"/><circle cx="2342" cy="0" r="2.3" fill="#7A4A21" opacity="0.09"/><circle cx="1366" cy="435" r="2.2" fill="#7A4A21" opacity="0.08"/><circle cx="334" cy="606" r="1.4" fill="#7A4A21" opacity="0.08"/><circle cx="1230" cy="687" r="1.5" fill="#7A4A21" opacity="0.10"/><circle cx="196" cy="248" r="2.0" fill="#7A4A21" opacity="0.08"/><circle cx="1998" cy="158" r="2.2" fill="#7A4A21" opacity="0.10"/><circle cx="343" cy="106" r="1.8" fill="#7A4A21" opacity="0.11"/><circle cx="1473" cy="325" r="1.7" fill="#7A4A21" opacity="0.10"/><circle cx="1253" cy="408" r="1.9" fill="#7A4A21" opacity="0.11"/><circle cx="1921" cy="638" r="1.3" fill="#7A4A21" opacity="0.08"/><circle cx="1975" cy="546" r="2.5" fill="#7A4A21" opacity="0.10"/><circle cx="306" cy="386" r="1.4" fill="#7A4A21" opacity="0.05"/><circle cx="1202" cy="748" r="2.2" fill="#7A4A21" opacity="0.05"/><circle cx="595" cy="281" r="2.4" fill="#7A4A21" opacity="0.07"/><circle cx="383" cy="418" r="1.2" fill="#7A4A21" opacity="0.04"/><circle cx="1422" cy="753" r="2.2" fill="#7A4A21" opacity="0.09"/><circle cx="366" cy="427" r="1.9" fill="#7A4A21" opacity="0.09"/><circle cx="1072" cy="41" r="2.5" fill="#7A4A21" opacity="0.06"/><circle cx="1772" cy="353" r="2.2" fill="#7A4A21" opacity="0.06"/><circle cx="222" cy="325" r="1.7" fill="#7A4A21" opacity="0.10"/><circle cx="969" cy="507" r="1.5" fill="#7A4A21" opacity="0.09"/><circle cx="418" cy="669" r="2.5" fill="#7A4A21" opacity="0.04"/><circle cx="2060" cy="591" r="2.0" fill="#7A4A21" opacity="0.05"/><circle cx="1759" cy="586" r="1.9" fill="#7A4A21" opacity="0.11"/><circle cx="2273" cy="482" r="2.5" fill="#7A4A21" opacity="0.05"/><circle cx="716" cy="403" r="1.7" fill="#7A4A21" opacity="0.11"/><circle cx="1526" cy="472" r="1.9" fill="#7A4A21" opacity="0.11"/><circle cx="961" cy="562" r="1.9" fill="#7A4A21" opacity="0.07"/><circle cx="814" cy="117" r="0.8" fill="#7A4A21" opacity="0.06"/><circle cx="720" cy="62" r="1.7" fill="#7A4A21" opacity="0.06"/><circle cx="2222" cy="593" r="2.0" fill="#7A4A21" opacity="0.10"/><circle cx="659" cy="88" r="1.9" fill="#7A4A21" opacity="0.06"/><circle cx="2364" cy="323" r="2.4" fill="#7A4A21" opacity="0.06"/><circle cx="225" cy="477" r="2.0" fill="#7A4A21" opacity="0.06"/><circle cx="2224" cy="740" r="2.0" fill="#7A4A21" opacity="0.11"/><circle cx="2360" cy="113" r="2.1" fill="#7A4A21" opacity="0.09"/><circle cx="1757" cy="258" r="1.8" fill="#7A4A21" opacity="0.08"/><circle cx="2040" cy="39" r="1.5" fill="#7A4A21" opacity="0.06"/><circle cx="1900" cy="89" r="0.9" fill="#7A4A21" opacity="0.05"/><circle cx="278" cy="331" r="2.4" fill="#7A4A21" opacity="0.06"/><circle cx="243" cy="509" r="1.4" fill="#7A4A21" opacity="0.08"/><circle cx="1794" cy="346" r="2.1" fill="#7A4A21" opacity="0.08"/><circle cx="2044" cy="579" r="2.4" fill="#7A4A21" opacity="0.09"/><circle cx="677" cy="383" r="2.2" fill="#7A4A21" opacity="0.09"/><circle cx="1753" cy="641" r="2.3" fill="#7A4A21" opacity="0.08"/><circle cx="1537" cy="33" r="1.7" fill="#7A4A21" opacity="0.09"/><circle cx="2192" cy="645" r="1.6" fill="#7A4A21" opacity="0.06"/><circle cx="2125" cy="500" r="1.1" fill="#7A4A21" opacity="0.04"/><circle cx="2107" cy="438" r="1.0" fill="#7A4A21" opacity="0.11"/><circle cx="1409" cy="577" r="2.3" fill="#7A4A21" opacity="0.06"/><circle cx="1254" cy="131" r="1.9" fill="#7A4A21" opacity="0.07"/><circle cx="1896" cy="88" r="1.2" fill="#7A4A21" opacity="0.07"/><circle cx="4" cy="309" r="2.5" fill="#7A4A21" opacity="0.10"/><circle cx="432" cy="632" r="1.2" fill="#7A4A21" opacity="0.06"/><circle cx="1530" cy="224" r="1.2" fill="#7A4A21" opacity="0.05"/><circle cx="424" cy="146" r="2.4" fill="#7A4A21" opacity="0.04"/><circle cx="1296" cy="161" r="2.1" fill="#7A4A21" opacity="0.04"/><circle cx="891" cy="561" r="0.8" fill="#7A4A21" opacity="0.07"/><circle cx="782" cy="368" r="1.9" fill="#7A4A21" opacity="0.05"/><circle cx="2078" cy="205" r="2.2" fill="#7A4A21" opacity="0.05"/><circle cx="225" cy="147" r="1.0" fill="#7A4A21" opacity="0.06"/><circle cx="335" cy="66" r="2.3" fill="#7A4A21" opacity="0.08"/><circle cx="1192" cy="386" r="2.3" fill="#7A4A21" opacity="0.04"/><circle cx="109" cy="506" r="0.8" fill="#7A4A21" opacity="0.08"/><circle cx="1500" cy="646" r="0.8" fill="#7A4A21" opacity="0.07"/><circle cx="751" cy="441" r="0.9" fill="#7A4A21" opacity="0.09"/><circle cx="2297" cy="417" r="2.0" fill="#7A4A21" opacity="0.10"/><circle cx="2025" cy="623" r="1.7" fill="#7A4A21" opacity="0.05"/><circle cx="1907" cy="641" r="2.1" fill="#7A4A21" opacity="0.06"/><circle cx="2340" cy="473" r="1.4" fill="#7A4A21" opacity="0.10"/><circle cx="538" cy="183" r="2.4" fill="#7A4A21" opacity="0.04"/><circle cx="2087" cy="302" r="1.8" fill="#7A4A21" opacity="0.09"/><circle cx="2166" cy="167" r="1.0" fill="#7A4A21" opacity="0.08"/><circle cx="538" cy="322" r="1.0" fill="#7A4A21" opacity="0.05"/><circle cx="1362" cy="39" r="1.3" fill="#7A4A21" opacity="0.07"/><circle cx="228" cy="612" r="2.4" fill="#7A4A21" opacity="0.04"/><circle cx="1936" cy="134" r="2.1" fill="#7A4A21" opacity="0.04"/><circle cx="1789" cy="709" r="1.3" fill="#7A4A21" opacity="0.05"/><circle cx="817" cy="653" r="2.2" fill="#7A4A21" opacity="0.05"/><circle cx="2164" cy="562" r="2.5" fill="#7A4A21" opacity="0.11"/><circle cx="380" cy="553" r="0.8" fill="#7A4A21" opacity="0.05"/><circle cx="1288" cy="177" r="1.2" fill="#7A4A21" opacity="0.07"/><circle cx="1103" cy="698" r="1.8" fill="#7A4A21" opacity="0.08"/><circle cx="1726" cy="143" r="2.2" fill="#7A4A21" opacity="0.09"/><circle cx="1954" cy="342" r="1.8" fill="#7A4A21" opacity="0.05"/><circle cx="1100" cy="489" r="2.5" fill="#7A4A21" opacity="0.10"/><circle cx="814" cy="575" r="2.3" fill="#7A4A21" opacity="0.11"/><circle cx="1633" cy="250" r="2.4" fill="#7A4A21" opacity="0.04"/><circle cx="1362" cy="348" r="2.4" fill="#7A4A21" opacity="0.08"/><circle cx="481" cy="126" r="0.9" fill="#7A4A21" opacity="0.09"/><circle cx="1880" cy="284" r="1.2" fill="#7A4A21" opacity="0.08"/><circle cx="469" cy="400" r="1.4" fill="#7A4A21" opacity="0.06"/><circle cx="1659" cy="189" r="1.4" fill="#7A4A21" opacity="0.08"/><circle cx="2260" cy="114" r="1.4" fill="#7A4A21" opacity="0.06"/><circle cx="756" cy="371" r="2.3" fill="#7A4A21" opacity="0.05"/><circle cx="1725" cy="328" r="1.8" fill="#7A4A21" opacity="0.08"/><circle cx="1447" cy="136" r="1.9" fill="#7A4A21" opacity="0.07"/><circle cx="1882" cy="453" r="1.5" fill="#7A4A21" opacity="0.11"/><circle cx="430" cy="10" r="1.0" fill="#7A4A21" opacity="0.09"/><circle cx="221" cy="559" r="1.0" fill="#7A4A21" opacity="0.06"/><circle cx="1493" cy="16" r="1.6" fill="#7A4A21" opacity="0.11"/><circle cx="1747" cy="296" r="2.4" fill="#7A4A21" opacity="0.08"/><circle cx="1946" cy="261" r="1.5" fill="#7A4A21" opacity="0.09"/><circle cx="1826" cy="526" r="1.1" fill="#7A4A21" opacity="0.07"/><circle cx="764" cy="176" r="1.0" fill="#7A4A21" opacity="0.09"/><circle cx="340" cy="269" r="0.8" fill="#7A4A21" opacity="0.09"/><circle cx="1501" cy="59" r="2.5" fill="#7A4A21" opacity="0.11"/><circle cx="1800" cy="612" r="2.1" fill="#7A4A21" opacity="0.04"/><circle cx="655" cy="180" r="0.8" fill="#7A4A21" opacity="0.08"/><circle cx="1419" cy="275" r="2.1" fill="#7A4A21" opacity="0.06"/><circle cx="674" cy="87" r="1.2" fill="#7A4A21" opacity="0.10"/><circle cx="1176" cy="560" r="2.4" fill="#7A4A21" opacity="0.09"/><circle cx="867" cy="735" r="0.9" fill="#7A4A21" opacity="0.07"/><circle cx="2124" cy="518" r="1.4" fill="#7A4A21" opacity="0.10"/><circle cx="1819" cy="550" r="1.3" fill="#7A4A21" opacity="0.09"/><circle cx="1574" cy="638" r="1.7" fill="#7A4A21" opacity="0.11"/><circle cx="1728" cy="159" r="1.8" fill="#7A4A21" opacity="0.05"/><circle cx="1482" cy="247" r="2.6" fill="#7A4A21" opacity="0.06"/><circle cx="1896" cy="635" r="1.5" fill="#7A4A21" opacity="0.08"/><circle cx="559" cy="285" r="1.6" fill="#7A4A21" opacity="0.09"/><circle cx="1220" cy="122" r="2.0" fill="#7A4A21" opacity="0.08"/><circle cx="1260" cy="339" r="2.4" fill="#7A4A21" opacity="0.09"/><circle cx="1588" cy="381" r="1.5" fill="#7A4A21" opacity="0.07"/><circle cx="1629" cy="333" r="0.9" fill="#7A4A21" opacity="0.06"/><circle cx="128" cy="37" r="1.4" fill="#7A4A21" opacity="0.07"/><circle cx="1095" cy="153" r="1.2" fill="#7A4A21" opacity="0.07"/><circle cx="697" cy="198" r="1.7" fill="#7A4A21" opacity="0.09"/><circle cx="146" cy="10" r="1.6" fill="#7A4A21" opacity="0.10"/><circle cx="1517" cy="277" r="2.6" fill="#7A4A21" opacity="0.09"/><circle cx="1981" cy="640" r="0.9" fill="#7A4A21" opacity="0.05"/><circle cx="1898" cy="297" r="2.4" fill="#7A4A21" opacity="0.04"/><circle cx="2251" cy="472" r="1.5" fill="#7A4A21" opacity="0.10"/><circle cx="1285" cy="349" r="1.1" fill="#7A4A21" opacity="0.09"/><circle cx="351" cy="228" r="1.0" fill="#7A4A21" opacity="0.04"/><circle cx="713" cy="34" r="1.6" fill="#7A4A21" opacity="0.06"/><circle cx="43" cy="353" r="1.3" fill="#7A4A21" opacity="0.06"/><circle cx="1299" cy="253" r="0.9" fill="#7A4A21" opacity="0.11"/><circle cx="2332" cy="180" r="2.0" fill="#7A4A21" opacity="0.08"/><circle cx="597" cy="409" r="1.3" fill="#7A4A21" opacity="0.06"/><circle cx="1088" cy="34" r="1.2" fill="#7A4A21" opacity="0.11"/><circle cx="1848" cy="252" r="2.6" fill="#7A4A21" opacity="0.06"/><circle cx="2043" cy="245" r="2.4" fill="#7A4A21" opacity="0.07"/><circle cx="2092" cy="104" r="1.5" fill="#7A4A21" opacity="0.06"/><circle cx="1876" cy="658" r="1.0" fill="#7A4A21" opacity="0.07"/><circle cx="414" cy="50" r="1.0" fill="#7A4A21" opacity="0.05"/><circle cx="724" cy="327" r="2.4" fill="#7A4A21" opacity="0.09"/><circle cx="1826" cy="251" r="1.4" fill="#7A4A21" opacity="0.07"/><circle cx="559" cy="15" r="1.3" fill="#7A4A21" opacity="0.10"/><circle cx="123" cy="383" r="1.2" fill="#7A4A21" opacity="0.09"/><circle cx="91" cy="388" r="2.1" fill="#7A4A21" opacity="0.07"/><circle cx="344" cy="676" r="0.8" fill="#7A4A21" opacity="0.10"/><circle cx="1964" cy="672" r="2.4" fill="#7A4A21" opacity="0.07"/><circle cx="1503" cy="357" r="1.9" fill="#7A4A21" opacity="0.07"/><circle cx="2051" cy="234" r="1.8" fill="#7A4A21" opacity="0.04"/><circle cx="141" cy="673" r="1.4" fill="#7A4A21" opacity="0.07"/><circle cx="2366" cy="549" r="1.1" fill="#7A4A21" opacity="0.08"/><circle cx="1159" cy="459" r="1.3" fill="#7A4A21" opacity="0.06"/><circle cx="2267" cy="453" r="1.8" fill="#7A4A21" opacity="0.09"/><circle cx="1805" cy="136" r="2.2" fill="#7A4A21" opacity="0.07"/><circle cx="361" cy="241" r="2.6" fill="#7A4A21" opacity="0.10"/><circle cx="2168" cy="380" r="1.9" fill="#7A4A21" opacity="0.07"/><circle cx="1763" cy="407" r="1.4" fill="#7A4A21" opacity="0.11"/><circle cx="1202" cy="31" r="2.3" fill="#7A4A21" opacity="0.05"/><circle cx="672" cy="344" r="1.2" fill="#7A4A21" opacity="0.07"/><circle cx="1056" cy="403" r="2.0" fill="#7A4A21" opacity="0.09"/><circle cx="121" cy="180" r="1.0" fill="#7A4A21" opacity="0.06"/><circle cx="1097" cy="647" r="0.8" fill="#7A4A21" opacity="0.10"/><circle cx="374" cy="563" r="2.3" fill="#7A4A21" opacity="0.11"/><circle cx="1382" cy="42" r="1.3" fill="#7A4A21" opacity="0.07"/><circle cx="1619" cy="736" r="2.4" fill="#7A4A21" opacity="0.04"/><circle cx="309" cy="495" r="1.2" fill="#7A4A21" opacity="0.08"/><circle cx="1222" cy="414" r="1.4" fill="#7A4A21" opacity="0.10"/><circle cx="704" cy="274" r="1.1" fill="#7A4A21" opacity="0.06"/><circle cx="319" cy="486" r="0.8" fill="#7A4A21" opacity="0.06"/><circle cx="1939" cy="647" r="1.4" fill="#7A4A21" opacity="0.09"/><circle cx="1944" cy="494" r="1.9" fill="#7A4A21" opacity="0.09"/>
    <rect x="26" y="26" width="2348" height="708" fill="none" stroke="#B8860B" stroke-width="3"/>
    <g transform="translate(1130,140)">
    <g transform="scale(0.7)">
      <!-- egg -->
      <path d="M100,8 C140,8 166,64 166,118 C166,168 138,198 100,198 C62,198 34,168 34,118 C34,64 60,8 100,8 Z"
            fill="none" stroke="#1E4023" stroke-width="9"/>
      <path d="M100,30 C130,30 150,74 150,116 C150,156 128,180 100,180 C72,180 50,156 50,116 C50,74 70,30 100,30 Z"
            fill="#1E4023"/>
      <path d="M78,60 C70,80 66,100 68,120" stroke="#F6EDDA" stroke-width="7" fill="none" stroke-linecap="round" opacity="0.85"/>
      <!-- leaves at base -->
      <path d="M100,196 C64,210 34,206 18,182 C48,172 82,176 100,196 Z" fill="#1E4023" stroke="#B8860B" stroke-width="3"/>
      <path d="M100,196 C136,210 166,206 182,182 C152,172 118,176 100,196 Z" fill="#1E4023" stroke="#B8860B" stroke-width="3"/>
      <path d="M100,244 C84,224 84,206 100,190 C116,206 116,224 100,244 Z" fill="#1E4023" stroke="#B8860B" stroke-width="3"/>
      <path d="M100,238 L100,196 M100,214 L88,204 M100,214 L112,204" stroke="#B8860B" stroke-width="2.5" fill="none"/>
    </g></g>
    <text x="1200" y="440" font-family="Baskerville, Georgia, serif" font-weight="700" font-size="80" fill="#1E4023" text-anchor="middle">EggShell</text>
    <text x="1196" y="500" font-family="'Avenir Next', 'Helvetica Neue', sans-serif" font-weight="600" font-size="34" letter-spacing="10" fill="#B8860B" text-anchor="middle">ORGANIC</text>
    <text x="1200" y="600" font-family="Baskerville, Georgia, serif" font-style="italic" font-size="34" fill="#7A4A21" text-anchor="middle">Daily Protein, The Natural Way.</text>
  </g>
<defs>
    <linearGradient id="aoV" x1="0" y1="0" x2="0" y2="1">
      <stop offset="0" stop-color="#2E2008" stop-opacity="0.16"/><stop offset="1" stop-color="#2E2008" stop-opacity="0"/>
    </linearGradient>
    <linearGradient id="aoH" x1="0" y1="0" x2="1" y2="0">
      <stop offset="0" stop-color="#2E2008" stop-opacity="0.16"/><stop offset="1" stop-color="#2E2008" stop-opacity="0"/>
    </linearGradient>
    <linearGradient id="aoVb" x1="0" y1="1" x2="0" y2="0">
      <stop offset="0" stop-color="#2E2008" stop-opacity="0.16"/><stop offset="1" stop-color="#2E2008" stop-opacity="0"/>
    </linearGradient>
    <linearGradient id="aoHr" x1="1" y1="0" x2="0" y2="0">
      <stop offset="0" stop-color="#2E2008" stop-opacity="0.16"/><stop offset="1" stop-color="#2E2008" stop-opacity="0"/>
    </linearGradient>
    <linearGradient id="sheenV" x1="0" y1="0" x2="0" y2="1">
      <stop offset="0" stop-color="#FFF6E0" stop-opacity="0.10"/><stop offset="0.3" stop-color="#FFF6E0" stop-opacity="0"/>
    </linearGradient>
  </defs>
  <rect width="2400" height="41" fill="url(#aoV)"/>
  <rect y="719" width="2400" height="41" fill="url(#aoVb)"/>
  <rect width="41" height="760" fill="url(#aoH)"/>
  <rect x="2359" width="41" height="760" fill="url(#aoHr)"/>
  <rect width="2400" height="760" fill="url(#sheenV)"/>
</svg>